<svg width="739" height="612" viewBox="250.213 109.852 738.918 611.822" fill="none" xmlns="http://www.w3.org/2000/svg">
<path d="M804.512 144.885C809.264 143.202 815.063 143.353 820.062 143.13C869.33 140.925 915.085 178.245 940.784 217.284C944.026 222.216 948.682 228.979 950.914 234.397C961.291 247.726 978.147 309.183 979.873 326.958C989.131 380.558 986.051 435.541 974.591 488.628C972.847 496.685 968.859 512.607 965.971 519.987C949.939 584.719 886.986 659.145 830.974 693.863C787.415 720.868 735.488 721.674 687.051 709.606C662.639 703.813 622.076 688.569 601.517 674.13C585.198 665.395 579.129 660.992 564.937 648.719C563.71 648.118 562.229 646.716 561.149 645.796C554.059 643.293 532.591 621.449 527.175 615.06C528.047 613.051 528.257 612.431 529.635 610.753C543.63 618.886 557.867 605.904 565.93 595.318C567.816 592.841 569.917 589.128 571.9 586.942L572.423 586.377C579.512 574.585 589.026 557.832 593.371 545.116L595.788 541.208C595.652 543.335 619.393 476.982 619.994 475.826C631.653 448.928 641.031 411.579 650.187 383.29C663.698 330.334 698.173 217.733 738.231 182.201C740.686 179.273 746.419 174.682 749.469 172.202C764.381 160.059 785.244 148.148 804.512 144.885ZM804.133 362.236C801.787 368.968 798.839 378.524 796.336 384.913C790.447 404.529 784.203 423.532 779.553 443.562C777.411 452.78 774.993 462.026 772.755 471.235C771.245 477.458 769.615 486.426 767.449 492.23C760.495 525.62 748.927 559.547 731.199 588.764C729.978 590.775 724.221 599.78 722.723 601.119C711.468 616.877 694.053 633.313 677.835 643.738C675.88 644.99 671.627 647.817 669.617 648.304C667.68 649.441 660.431 653.099 659.655 653.737C687.64 665.353 715.829 661.744 742.466 648.352C769.092 632.206 791.867 595.728 804.746 568.043C817.505 540.467 824.466 511.575 831.462 482.274C839.811 447.331 844.389 416.443 844.63 380.501C843.836 374.658 843.98 364.436 843.379 358.039C841.496 337.992 838.127 321.418 828.424 303.857C825.254 307.24 822.192 315.576 820.315 320.144C815.003 334.216 809.408 348.069 804.133 362.236Z" fill="#59BAF0"/>
<path d="M864.09 253.656C881.265 234.457 909.526 223.532 935.009 228.901C937.529 229.829 949.025 234.25 950.914 234.397C961.291 247.726 978.147 309.183 979.873 326.958C989.131 380.558 986.051 435.541 974.591 488.628C972.847 496.685 968.859 512.607 965.971 519.987C949.939 584.719 886.986 659.145 830.974 693.863C787.415 720.868 735.488 721.674 687.051 709.606C662.639 703.813 622.076 688.569 601.517 674.131C585.198 665.395 579.129 660.992 564.937 648.719C563.71 648.118 562.229 646.716 561.149 645.796C564.779 646.325 576.939 649.838 579.751 649.273C586.809 653.592 604.594 658.08 612.553 657.497L612.788 657.617L614.502 658.086L614.249 657.839L616.132 658.682C614.322 658.628 609.557 658.176 608.36 659.019C615.795 660.324 621.059 660.017 628.218 660.649C637.35 660.721 651.456 657.665 659.655 653.737C687.64 665.353 715.829 661.744 742.466 648.352C769.092 632.206 791.867 595.728 804.746 568.043C817.505 540.467 824.466 511.575 831.462 482.274C839.811 447.331 844.389 416.443 844.63 380.501C843.836 374.658 843.98 364.436 843.379 358.039C841.496 337.992 838.127 321.418 828.424 303.857C825.254 307.24 822.192 315.576 820.315 320.144C818.907 316.389 820.261 312.697 822.661 309.683L823.112 309.938C824.496 306.971 825.621 303.825 828.761 302.648C828.616 302.746 848.017 272.248 850.447 268.837C853.972 264.038 859.41 257.193 864.09 253.656Z" fill="#59BAF0"/>
<path d="M864.09 253.656C881.265 234.457 909.526 223.532 935.009 228.901C937.529 229.829 949.025 234.25 950.914 234.397C961.291 247.726 978.147 309.183 979.873 326.958C989.131 380.558 986.051 435.541 974.591 488.628C972.847 496.685 968.858 512.607 965.971 519.987C965.424 516.561 968.522 507.432 969.394 502.86C966.175 504.614 959.661 505.792 956.226 508.187C951.323 511.821 944.056 516.974 940.362 521.718C936.873 526.82 933.872 532.19 929.637 536.716C924.427 542.276 918.424 548.473 916.968 556.197C916.637 557.938 911.235 562.896 909.653 564.034C908.053 562.606 907.74 559.401 907.758 557.385C908.522 556.208 908.919 553.415 909.755 551.286C913.394 541.995 920.427 523.738 920.878 514.234C921.594 499.087 925.402 496.667 929.889 481.939C933.005 471.71 935.586 453.918 932.229 443.229C915.103 418.09 934.287 391.182 924.066 364.814C920.619 355.905 920.619 340.839 912.636 334.152C904.545 328.846 889.049 331.378 880.964 333.516C865.396 337.631 866.4 388.893 856.589 390.117L855.356 389.02C854.501 384.792 849.755 376.741 845.917 374.625L845.201 374.904L845.292 379.825L844.63 380.501C843.836 374.658 843.98 364.436 843.379 358.039C841.496 337.992 838.127 321.418 828.424 303.857C825.253 307.24 822.192 315.576 820.315 320.144C818.907 316.389 820.261 312.697 822.661 309.683L823.112 309.938C824.496 306.971 825.62 303.825 828.761 302.648C828.616 302.746 848.017 272.248 850.447 268.837C853.972 264.038 859.41 257.193 864.09 253.656Z" fill="#1995E3"/>
<path d="M864.09 253.656C881.265 234.457 909.526 223.532 935.009 228.901C937.529 229.829 949.025 234.25 950.914 234.397C961.291 247.726 978.147 309.183 979.873 326.958C976.306 323.484 976.949 309.45 974.742 305.529C973.623 303.542 971.463 303.033 970.597 300.422C967.21 290.256 947.708 255.052 939.821 249.922C938.462 249.038 921.961 243.279 919.735 242.751C917.852 242.303 915.596 242.075 913.713 242.557C912.6 242.841 911.445 243.516 910.892 244.557C907.553 250.846 917.509 260.988 920.788 265.756C923.988 270.419 927.375 275.515 930.1 280.48C932.338 284.563 933.805 289.741 935.021 294.224C933.27 292.475 931.207 283.554 929.853 281.847C926.238 277.292 923.555 271.239 920.553 266.738C918.315 263.393 911.289 261.928 907.866 258.874C907.03 259.394 907.367 259.289 906.362 259.363L905.327 257.3C902.855 257.02 898.686 257.155 896.478 258.347C898.71 259.703 900.84 260.991 902.284 263.173C900.792 263.326 893.392 258.864 891.858 257.748C892.761 256.752 892.574 257.21 892.887 256.005C886.787 253.002 872.669 255.051 870.244 251.9L871.508 250.093L870.798 249.481C868.704 249.834 867.724 252.073 865.227 254.023L864.09 253.656Z" fill="#2D61D3"/>
<path d="M561.149 645.796C564.779 646.325 576.939 649.838 579.751 649.273C586.809 653.592 604.594 658.08 612.553 657.497L612.788 657.617L614.502 658.086L614.249 657.839L616.132 658.682C614.322 658.628 609.557 658.176 608.36 659.019C615.795 660.324 621.059 660.017 628.218 660.649C637.35 660.721 651.456 657.665 659.655 653.737C687.64 665.353 715.829 661.744 742.466 648.352C739.32 652.088 733.918 655.102 729.912 657.773C713.88 668.488 697.939 671.923 679.405 676.146C660.786 680.393 641.56 681.163 622.587 678.131C616.908 677.295 606.447 673.83 601.517 674.131C585.198 665.395 579.129 660.992 564.937 648.719C563.71 648.118 562.229 646.716 561.149 645.796Z" fill="#263FC3"/>
<path d="M561.149 645.796C564.779 646.325 576.939 649.838 579.751 649.273C586.809 653.592 604.594 658.08 612.553 657.497L612.788 657.617L614.502 658.086L614.249 657.839L616.132 658.682C614.322 658.628 609.557 658.176 608.36 659.019C615.795 660.324 621.059 660.017 628.218 660.649C617.023 662.219 597.307 659.999 586.555 656.54C579.861 654.386 571.832 651.072 564.937 648.719C563.71 648.118 562.229 646.716 561.149 645.796Z" fill="#A450BD"/>
<path d="M650.187 383.29C651.6 386.112 651.246 387.353 653.941 389.123C661.959 389.723 665.803 376.077 673.912 375.558C680.885 375 681.276 369.633 687.766 373.261C688.657 373.762 698.336 369.466 704.628 373.545C710.812 373.238 716.99 373.433 719.914 380.607C720.221 381.365 724.937 396.18 724.943 396.23C725.442 407.864 724.239 419.951 720.534 431.064C719.132 435.25 719.457 441.879 716.966 446.888C718.314 445.541 733.648 437.068 736.132 435.776C741.245 433.119 753.541 431.379 759.16 434.044C763.792 436.242 765.801 437.336 767.834 442.104C767.618 443.612 768.298 444.547 768.977 445.96C764.772 454.612 771.72 459.907 772.087 467.414C772.436 474.49 766.631 484.714 767.449 492.23C760.495 525.62 748.927 559.547 731.199 588.764C729.978 590.775 724.221 599.78 722.723 601.119C711.468 616.877 694.053 633.313 677.835 643.738C675.88 644.99 671.627 647.817 669.617 648.304C667.68 649.441 660.431 653.099 659.655 653.737C651.456 657.665 637.35 660.721 628.218 660.649C621.059 660.017 615.795 660.324 608.36 659.019C609.557 658.176 614.322 658.628 616.132 658.682L614.249 657.839L614.502 658.086L612.788 657.617L612.553 657.497C604.594 658.08 586.809 653.592 579.751 649.273C576.939 649.838 564.779 646.325 561.149 645.796C554.059 643.293 532.591 621.449 527.175 615.06C528.047 613.051 528.257 612.431 529.635 610.753C543.63 618.886 557.867 605.904 565.93 595.318C567.816 592.841 569.917 589.128 571.9 586.942L572.423 586.377C579.512 574.585 589.026 557.832 593.371 545.116L595.788 541.208C595.652 543.335 619.393 476.982 619.994 475.826C631.653 448.928 641.031 411.579 650.187 383.29Z" fill="#975BC9"/>
<path d="M650.187 383.29C651.6 386.112 651.246 387.353 653.941 389.123C661.959 389.723 665.803 376.077 673.912 375.558C680.885 375 681.276 369.633 687.766 373.261C688.657 373.762 698.336 369.466 704.628 373.545C710.812 373.238 716.99 373.433 719.914 380.607C720.221 381.365 724.937 396.18 724.943 396.23C725.442 407.864 724.239 419.951 720.534 431.064C719.132 435.25 719.457 441.879 716.966 446.888C704.857 452.908 697.073 463.594 688.139 473.404C681.991 480.157 671.007 484.594 664.684 490.771C655.643 499.611 650.704 509.488 638.697 516.528C630.143 521.544 619.627 519.937 610.448 522.829C608.132 526.409 599.354 545.039 597.502 549.612C597.299 548.759 597.054 548.207 596.745 547.396C594.318 548.653 591.609 556.043 589.711 558.504C590.877 553.016 595.736 544.811 595.788 541.208C595.652 543.335 619.393 476.982 619.994 475.826C631.653 448.928 641.031 411.579 650.187 383.29Z" fill="#A1A3E7"/>
<path d="M609.022 650.278C620.782 650.687 635.106 652.094 646.475 647.823C650.65 645.868 657.514 645.513 660.63 642.078C663.114 639.341 662.218 642.18 663.481 641.885C666.104 641.699 670.399 639.455 672.89 639.371C690.738 638.727 701.975 622.279 713.573 610.639C715.998 608.202 718.994 603.257 721.761 600.898L722.723 601.119C711.468 616.877 694.053 633.313 677.835 643.738C675.88 644.99 671.626 647.817 669.617 648.304C667.68 649.441 660.431 653.099 659.655 653.737C651.456 657.665 637.349 660.721 628.218 660.649C621.059 660.017 615.795 660.324 608.36 659.019C609.557 658.176 614.322 658.628 616.132 658.682L614.249 657.839L614.502 658.086L612.788 657.617L612.553 657.497C607.055 655.186 599.551 654.26 594.784 651.324L594.753 650.584C599.051 650.121 604.492 650.38 609.022 650.278Z" fill="#D384D9"/>
<path d="M612.788 657.617C625.487 657.304 634.167 658.922 647.528 655.048C653.604 653.285 664.287 648.954 669.617 648.304C667.68 649.441 660.431 653.099 659.655 653.737C651.456 657.665 637.35 660.721 628.218 660.649C621.059 660.017 615.795 660.324 608.36 659.019C609.557 658.176 614.322 658.628 616.132 658.682L614.249 657.839L614.502 658.086L612.788 657.617Z" fill="#C067CC"/>
<path d="M595.788 541.208C595.736 544.811 590.877 553.016 589.711 558.504C591.609 556.043 594.318 548.653 596.745 547.396C597.054 548.207 597.299 548.759 597.502 549.612L594.631 555.745L594.898 556.245L595.793 556.039C594.236 561.175 585.596 568.609 584.161 575.079C584.114 575.293 579.657 581.625 579.083 582.647C578.098 579.035 586.712 573.1 585.763 568.259C580.759 571.2 576.683 583.252 573.036 586.614L572.423 586.377C579.512 574.585 589.026 557.832 593.371 545.116L595.788 541.208Z" fill="#D384D9"/>
<path d="M579.751 649.273L585.861 649.676C585.099 646.788 583.967 646.668 581.046 646.193C586.252 646.451 604.209 648.834 609.022 650.278C604.492 650.38 599.051 650.121 594.753 650.584L594.784 651.324C599.551 654.26 607.055 655.186 612.553 657.497C604.594 658.08 586.809 653.592 579.751 649.273Z" fill="#C067CC"/>
<path d="M804.512 144.885C809.264 143.202 815.063 143.353 820.062 143.13C869.33 140.925 915.085 178.245 940.784 217.284C944.026 222.216 948.682 228.979 950.914 234.397C949.025 234.25 937.529 229.829 935.009 228.901C935.773 228.315 935.43 228.659 935.73 227.418C929.907 220.302 909.587 221.617 901.351 223.606C895.895 224.967 890.8 227.499 885.512 229.323C881.824 230.871 875.49 231.048 871.995 232.482C858.189 238.147 852.943 232.449 842.404 224.322C841.526 223.645 837.971 223.573 836.816 222.972C825.873 217.295 804.379 219.747 798.021 206.81C796.637 204.036 796.511 200.801 797.678 197.927C801.203 188.992 817.812 179.101 826.535 175.572C829.368 176.246 831.648 175.756 834.469 175.252C840.672 174.142 846.098 173.903 852.384 174.161C859.482 169.111 864.03 171.554 871.754 168.851L871.538 168.161L869.222 167.575L868.728 165.241C859.224 155.305 852.992 155.408 839.306 151.592C814.726 149.898 802.611 148.873 777.899 157.985C770.192 160.827 755.286 176.437 749.878 176.188L749.806 174.887C744.843 175.984 743.754 181.577 738.231 182.201C740.686 179.273 746.419 174.682 749.469 172.202C764.381 160.059 785.244 148.148 804.512 144.885Z" fill="#2BC0ED"/>
<path d="M767.834 442.104C768.887 439.158 771.185 434.003 772.984 431.067C779.252 420.839 780.19 408.992 785.111 398.182C785.412 397.53 784.672 391.803 785.286 390.298C788.282 382.95 790.802 374.464 794.237 367.419C795.049 370.024 795.007 370.744 795.055 373.37C794.887 375.201 793.822 383.431 794.363 384.516L795.651 383.673L796.336 384.913C790.447 404.529 784.203 423.532 779.553 443.562C777.411 452.78 774.993 462.026 772.755 471.235C771.245 477.458 769.615 486.426 767.449 492.23C766.631 484.714 772.436 474.49 772.087 467.414C771.72 459.907 764.772 454.612 768.977 445.96C768.298 444.547 767.618 443.612 767.834 442.104Z" fill="#2D61D3"/>
<path d="M826.535 175.572C818.865 173.706 808.915 180.99 804.59 179.882L805.137 178.55C802.845 178.396 799.086 179.477 797.678 181.398C798.496 182.115 799.074 181.885 800.451 181.98C799.434 184.912 781.965 196.104 781.352 200.576C781.243 201.391 780.533 202.443 780.07 203.196L779.072 202.343C775.432 201.778 776.13 209.435 773.555 211.002L772.509 207.887C769.411 207.626 764.099 230.14 758.943 228.963C766.812 221.085 767.191 210.694 770.361 200.784C771.143 198.352 779.294 195.949 780.491 192.583C781.195 190.583 781.664 187.625 783.271 186.727C806.485 173.736 829.916 159.329 857.467 164.8L857.551 165.489C854.556 166.483 851.385 166.242 848.354 166.774C839.709 168.29 830.445 169.854 822.992 174.521L823.04 174.171C825.837 172.666 828.947 172.96 831.756 172.041C844.082 168.008 856.168 167.009 869.222 167.575L871.538 168.161L871.754 168.851C864.03 171.554 859.482 169.111 852.384 174.161C846.098 173.903 840.672 174.142 834.469 175.252C831.648 175.756 829.368 176.246 826.535 175.572Z" fill="#58D0F1"/>
<path d="M829.067 278.403C830.962 276.475 832.725 274.861 834.734 273.052L835.408 273.104C834.878 275.781 832.677 275.935 831.371 279.041C828.785 285.191 827.81 293.13 824.129 298.61C821.891 301.937 819.815 303.612 822.083 307.777L822.661 309.683C820.261 312.697 818.907 316.389 820.315 320.144C815.003 334.216 809.408 348.069 804.133 362.236C801.787 368.968 798.839 378.524 796.336 384.913L795.651 383.673L794.363 384.516C793.822 383.431 794.887 375.201 795.055 373.37C795.007 370.744 795.049 370.024 794.237 367.419C795.789 362.147 796.872 357.881 799.025 352.761C800.878 348.36 805.264 341.502 806.665 337.388C810.491 326.112 813.577 314.703 818.6 303.792C821.229 298.08 825.35 293.393 827.828 287.635C829.103 284.677 828.971 281.645 829.067 278.403Z" fill="#3693D9"/>
<path d="M795.055 373.37C797.642 370.512 799.507 365.059 802.226 361.948L804.133 362.236C801.787 368.968 798.839 378.524 796.336 384.913L795.651 383.673L794.363 384.516C793.822 383.431 794.887 375.201 795.055 373.37Z" fill="#1995E3"/>
<path d="M822.083 307.777C826.03 300.99 826.246 298.078 831.588 290.43C830.872 289.803 831.041 290.073 830.613 289.266L831.901 288.492C832.857 288.563 835.3 288.75 835.967 288.084C840.798 283.254 844.173 271.937 850.447 268.837C848.017 272.248 828.616 302.746 828.761 302.648C825.62 303.825 824.496 306.971 823.112 309.938L822.661 309.683L822.083 307.777Z" fill="#2BC0ED"/>
<path d="M320.095 272.251C321.318 264.753 327.32 253.477 329.98 245.835C354.698 174.813 439.924 109.852 511.827 160.977C520.088 166.851 534.126 179.748 539.265 188.97C545.017 195.008 559.375 223.594 561.473 232.151C559.924 231.721 558.266 229.735 557.346 228.455C533.676 195.509 500.47 230.675 486.542 253.592C483.546 258.523 480.939 264.259 477.849 268.945C475.352 273.908 472.958 278.924 470.669 283.987C467.637 292.385 463.254 300.849 460.458 309.026C457.234 318.647 454.187 328.326 451.318 338.058C450.15 342.122 448.786 348.161 447.535 351.916C444.264 357.26 440.73 375.002 438.829 381.99C429.086 418.549 421.618 455.676 416.469 493.159C414.911 504.249 412.886 517.568 411.874 528.544C409.763 551.437 409.408 570.451 400.428 592.214C392.618 612.239 375.85 627.387 355.982 635.424C322.333 649.032 279.612 636.994 264.988 601.717C250.213 566.073 267.482 533.78 273.195 498.66C276.778 476.637 279.945 454.839 283.52 432.972C289.482 395.353 296.993 357.995 306.036 320.995C308.727 310.208 316 282.08 320.095 272.251Z" fill="#D754B4"/>
<path d="M320.095 272.251C321.318 264.753 327.32 253.477 329.98 245.835C354.698 174.813 439.924 109.852 511.827 160.977C520.088 166.851 534.126 179.748 539.265 188.97C545.017 195.008 559.375 223.594 561.473 232.151C559.924 231.721 558.266 229.735 557.346 228.455C533.676 195.509 500.47 230.675 486.542 253.592C483.546 258.523 480.939 264.259 477.849 268.945C475.352 273.908 472.958 278.924 470.668 283.987C466.423 284.93 458.001 317.116 454.085 320.185C454.097 318.513 450.072 310.867 448.5 309.722C445.606 307.336 433.497 310.588 430.627 309.668C425.002 307.862 408.52 316.579 405.855 315.867C394.421 312.812 386.341 316.656 374.856 314.848C367.925 313.757 361.931 310.311 354.943 311.614C353.748 311.811 353.257 311.252 352.214 310.728C345.723 313.491 338.075 322.451 335.049 328.654C333.31 332.216 327.61 345.935 322.924 344.924C320.255 341.465 321.641 334.26 322.323 330.35C322.631 328.585 321.642 326.657 321.885 324.382C322.736 316.417 329.561 293.876 326.724 287.377C324.722 289.938 326.891 303.572 321.553 306.524C321.174 305.078 320.615 303.889 320.032 302.518C316.458 300.394 316.066 300.057 313.743 296.616C315.187 291.875 320.421 276.123 320.095 272.251Z" fill="#9A91E2"/>
<path d="M539.265 188.97C545.017 195.008 559.375 223.594 561.473 232.151C559.924 231.721 558.266 229.735 557.346 228.455C533.676 195.509 500.47 230.675 486.542 253.592C483.546 258.523 480.939 264.259 477.849 268.945C478.119 266.491 480.691 261.009 481.899 258.559C489.168 243.827 495.668 234.095 507.974 223.282C514.202 223.27 520.915 214.669 531.484 214.263C547.984 213.627 547.024 217.375 558.541 226.793C555.201 218.727 551.168 211.191 546.969 203.56C545.375 200.664 539.286 191.587 539.265 188.97Z" fill="#2D61D3"/>
<path d="M479.841 247.228L479.063 246.594C477.196 248.248 475.405 249.937 473.353 251.348C472.667 249.201 480.472 244.082 480.43 242.841C480.191 235.605 488.527 232.332 492.49 227.084C492.288 227.351 494.721 227.002 495.905 226.171C496.605 223.695 497.865 220.854 499.932 219.236L500.631 219.634C500.003 224.301 488.587 237.361 485.706 241.84L485.399 242.326C484.407 243.265 480.792 246.84 479.841 247.228Z" fill="#ADA9EC"/>
<path d="M479.841 247.228C480.792 246.84 484.407 243.265 485.399 242.326C484.559 243.948 482.311 247.074 481.047 248.258C477.1 251.952 468.851 268.575 464.79 270.405C464.078 269.507 464.194 270.028 464.262 269.159C464.839 261.667 470.604 256.977 475.564 251.994C477.041 250.51 478.304 248.601 479.841 247.228Z" fill="#AD9AE5"/>
<path d="M304.395 619.374L305.283 619.735C308.138 618.923 317.195 622.033 317.393 626.286L316.479 627.14C312.514 627.495 303.983 625.101 302.213 621.533C303.06 619.825 302.603 620.409 304.395 619.374Z" fill="#EB1A8C"/>
<path d="M477.849 268.945C480.939 264.259 483.546 258.523 486.542 253.592C500.47 230.675 533.676 195.509 557.346 228.455C558.266 229.735 559.924 231.721 561.473 232.151C571.345 253.98 576.806 291.251 581.287 315.069C587.121 346.081 592.878 377.192 599.283 408.139C601.773 420.18 605.912 432.734 609.19 444.599C610.351 448.796 614.448 459.916 615.188 463.648C616.71 467.738 618.31 471.799 619.994 475.826C619.393 476.982 595.652 543.335 595.788 541.208L593.371 545.116C589.026 557.832 579.512 574.585 572.423 586.377L571.9 586.942C569.917 589.128 567.816 592.841 565.93 595.318C557.867 605.904 543.63 618.886 529.635 610.753C528.257 612.431 528.047 613.051 527.175 615.06C520.751 607.528 513.794 597.399 509.235 588.607C497.391 568.579 488.835 537.954 482.966 515.282C481.796 510.76 479.495 502.056 478.928 497.638C474.773 483.669 471.895 463.951 468.856 449.537C462.25 416.889 455.142 384.345 447.535 351.916C448.786 348.161 450.15 342.122 451.318 338.058C454.187 328.326 457.234 318.647 460.458 309.026C463.254 300.849 467.637 292.385 470.669 283.987C472.958 278.924 475.352 273.908 477.849 268.945Z" fill="#4147D5"/>
<path d="M590.841 485.18C594.367 482.84 596.761 480.367 600.685 478.667C606.243 476.258 611.621 475.281 616.932 472.21C616.469 468.956 614.532 466.757 615.188 463.648C616.71 467.738 618.31 471.799 619.994 475.826C619.393 476.982 595.652 543.335 595.788 541.208L593.371 545.116C593.189 541.15 596.957 537.299 596.31 533.526C593.702 518.334 585.645 500.801 590.841 485.18Z" fill="#9A91E2"/>
<path d="M476.853 466.088C474.982 457.821 474.749 447.181 471.408 438.584C470.632 436.587 468.549 424.916 468.898 423.054C470.679 424.614 471.109 430.448 472.251 432.314C476.88 439.886 477.165 447.695 479.764 455.62C485.489 473.086 489.977 490.65 493.386 508.717C495.479 519.608 496.341 531.004 498.299 541.894C499.823 550.368 503.822 552.799 501.633 562.237C489.891 544.478 492.37 520.35 486.759 500.46C483.542 489.057 481.886 476.996 476.853 466.088Z" fill="#2D61D3"/>
<path d="M478.928 497.638C480.726 489.97 471.023 470.229 474.413 455.888C474.617 459.485 478.855 483.246 480.325 484.361C481.276 481.454 477.411 470.422 476.853 466.088C481.886 476.996 483.542 489.057 486.759 500.46C492.37 520.35 489.891 544.478 501.633 562.237C504.268 570.053 511.847 584.163 515.691 593.276C512.975 591.69 512.276 589.923 510.361 587.3L509.235 588.607C497.391 568.579 488.835 537.954 482.966 515.282C481.796 510.76 479.495 502.056 478.928 497.638Z" fill="#6E75E1"/>
<path d="M509.235 588.607L510.361 587.3C512.276 589.923 512.975 591.69 515.691 593.276C519.603 600.338 522.929 605.73 529.635 610.753C528.257 612.431 528.047 613.051 527.175 615.06C520.751 607.528 513.794 597.399 509.235 588.607Z" fill="#9A91E2"/>
</svg>
