<?xml version="1.0" encoding="UTF-8"?>
<svg version="1.1" xmlns="http://www.w3.org/2000/svg" width="1024" height="269">
<path d="M0 0 C337.92 0 675.84 0 1024 0 C1024 88.77 1024 177.54 1024 269 C686.08 269 348.16 269 0 269 C0 180.23 0 91.46 0 0 Z " fill="#FCFCFC" transform="translate(0,0)"/>
<path d="M0 0 C3.24235971 1.41863716 5.33839934 3.11878069 7.7901001 5.65725708 C8.52975006 6.41728027 9.26940002 7.17730347 10.03146362 7.96035767 C10.83351227 8.79473358 11.63556091 9.6291095 12.46191406 10.48876953 C14.22933609 12.30885665 15.9969433 14.12876397 17.76470947 15.94851685 C18.71037639 16.92531071 19.65597512 17.90217061 20.60150909 18.87909317 C23.53504754 21.90672353 26.48392504 24.91909096 29.43695068 27.92770386 C29.93614714 28.43637879 30.43534359 28.94505371 30.94966722 29.46914303 C32.48714844 31.03554565 34.02482317 32.60175815 35.5625 34.16796875 C41.91822332 40.64250477 48.26231477 47.12718702 54.56054688 53.65771484 C59.15823991 58.42476102 63.78414881 63.1623413 68.44429946 67.86837471 C70.90596359 70.356486 73.35139095 72.85671089 75.76294708 75.39349747 C86.41983389 87.72821948 86.41983389 87.72821948 100.90862656 93.3726635 C104.04148759 93.24710881 106.95653952 92.73816148 110 92 C110.96923401 91.80842316 111.93846802 91.61684631 112.93707275 91.41946411 C113.61783875 91.28104095 114.29860474 91.1426178 115 91 C115.33 92.65 115.66 94.3 116 96 C114.34385343 96.38218767 112.67542976 96.71395102 111 97 C110.67 96.67 110.34 96.34 110 96 C107.54911118 95.87287308 105.13889455 95.81479317 102.6875 95.8125 C102.01009766 95.80025391 101.33269531 95.78800781 100.63476562 95.77539062 C95.47799125 95.75325795 95.47799125 95.75325795 91 98 C90.7006958 98.61558777 90.4013916 99.23117554 90.09301758 99.86541748 C88.9261898 102.14414586 87.6700198 103.58362836 85.8671875 105.39160156 C85.23312988 106.0319635 84.59907227 106.67232544 83.94580078 107.33209229 C83.26243652 108.01140808 82.57907227 108.69072388 81.875 109.390625 C81.1722998 110.09523865 80.46959961 110.79985229 79.74560547 111.52581787 C78.26189896 113.01088353 76.77567108 114.49343381 75.28710938 115.97363281 C73.00156409 118.24844325 70.72690983 120.5337536 68.453125 122.8203125 C67.01105781 124.26105868 65.56837065 125.70118465 64.125 127.140625 C63.44163574 127.82803772 62.75827148 128.51545044 62.05419922 129.22369385 C61.4201416 129.85144714 60.78608398 130.47920044 60.1328125 131.12597656 C59.57480957 131.68238831 59.01680664 132.23880005 58.44189453 132.81207275 C57 134 57 134 55 134 C54.74549072 134.58120605 54.49098145 135.16241211 54.22875977 135.76123047 C52.86941324 138.23792581 51.36088903 139.85134445 49.33984375 141.8203125 C48.2734668 142.87025391 48.2734668 142.87025391 47.18554688 143.94140625 C46.44369141 144.66199219 45.70183594 145.38257813 44.9375 146.125 C43.46526807 147.56287561 41.99510844 149.00287708 40.52734375 150.4453125 C39.87499756 151.07969238 39.22265137 151.71407227 38.55053711 152.36767578 C36.91114 153.93459167 36.91114 153.93459167 36 156 C35.34 156 34.68 156 34 156 C32.27916272 144.17992268 32.27916272 144.17992268 34.95581055 139.23376465 C38.04194138 135.11555373 41.90677826 131.76652835 45.75 128.375 C46.87586785 127.33316666 47.99829902 126.28760661 49.1171875 125.23828125 C50.69571065 123.75835358 52.27646375 122.28526425 53.88763428 120.84091187 C56.93339168 118.10271962 59.49727189 115.23650138 62 112 C63.21976638 110.882735 64.46978219 109.79745094 65.75 108.75 C70.30203288 104.87392689 74.10052452 100.5261769 78 96 C74.04 95.67 70.08 95.34 66 95 C65.67 93.68 65.34 92.36 65 91 C64.34 91 63.68 91 63 91 C62.92652344 92.22976562 62.92652344 92.22976562 62.8515625 93.484375 C62.77679688 94.56203125 62.70203125 95.6396875 62.625 96.75 C62.55539062 97.81734375 62.48578125 98.8846875 62.4140625 99.984375 C62.0271777 102.80206432 61.44313834 104.5830366 60 107 C59.34 106.67 58.68 106.34 58 106 C57.359501 103.12950676 56.83181216 100.33658206 56.375 97.4375 C55.92125 94.653125 55.4675 91.86875 55 89 C54.01 96.26 53.02 103.52 52 111 C51.01 111 50.02 111 49 111 C48.01 104.4 47.02 97.8 46 91 C44.68 97.27 43.36 103.54 42 110 C41.01 109.67 40.02 109.34 39 109 C38.86722656 107.95199219 38.73445312 106.90398437 38.59765625 105.82421875 C38.41942765 104.44529222 38.24103359 103.06638707 38.0625 101.6875 C37.97548828 100.99720703 37.88847656 100.30691406 37.79882812 99.59570312 C37.40789865 96.59857712 36.9584996 93.87549881 36 91 C35.34 95.95 34.68 100.9 34 106 C32.68 106 31.36 106 30 106 C29.01 100.06 29.01 100.06 28 94 C26.41727399 95.58272601 26.65264253 97.38034003 26.4375 99.5625 C26.35371094 100.38878906 26.26992187 101.21507812 26.18359375 102.06640625 C26.12300781 102.70449219 26.06242188 103.34257812 26 104 C25.01 104.33 24.02 104.66 23 105 C22.80664062 104.36191406 22.61328125 103.72382813 22.4140625 103.06640625 C22.15367187 102.24011719 21.89328125 101.41382813 21.625 100.5625 C21.36976563 99.73878906 21.11453125 98.91507812 20.8515625 98.06640625 C20.19117773 95.82201984 20.19117773 95.82201984 18 95 C18.01776489 95.96164566 18.03552979 96.92329132 18.05383301 97.91407776 C18.21624155 106.99148423 18.33604052 116.06859475 18.41449738 125.1471262 C18.45619069 129.81427781 18.51270788 134.48025363 18.60351562 139.14672852 C18.69065675 143.65315679 18.73831818 148.1584568 18.75901794 152.66566277 C18.77376201 154.38215838 18.80255619 156.09859449 18.84584045 157.81460762 C19.17179365 171.27662037 19.17179365 171.27662037 16.25476074 175.5667572 C14.25088877 177.33234514 12.3021784 178.66172326 10 180 C8.48137384 181.46003719 6.97637947 182.93475661 5.5 184.4375 C4.8296875 185.11683594 4.159375 185.79617187 3.46875 186.49609375 C2.9840625 186.99238281 2.499375 187.48867187 2 188 C-3.136105 183.70664091 -7.92415454 179.20045012 -12.625 174.4375 C-13.26695312 173.79103516 -13.90890625 173.14457031 -14.5703125 172.47851562 C-15.81901227 171.22086002 -17.06676973 169.96226794 -18.31347656 168.70263672 C-20.53440994 166.46048423 -22.76658089 164.22970911 -25 162 C-26.66675786 160.33342454 -28.3334068 158.66674014 -30 157 C-31.05012497 155.94986455 -32.10025547 154.89973464 -33.15039062 153.84960938 C-55.84960937 131.15039063 -55.84960937 131.15039063 -57.46846008 129.53140259 C-58.91444018 128.08555214 -60.36089182 126.64017332 -61.80737305 125.19482422 C-63.12325659 123.87762201 -64.43498359 122.55621899 -65.73828125 121.2265625 C-69.48509512 117.4146675 -73.38100675 113.89278947 -77.49609375 110.48046875 C-77.99238281 109.99191406 -78.48867187 109.50335938 -79 109 C-79 108.34 -79 107.68 -79 107 C-79.66 107 -80.32 107 -81 107 C-82.62109375 105.35546875 -82.62109375 105.35546875 -84.4375 103.1875 C-85.61897919 101.78656679 -86.8062504 100.3904923 -88 99 C-88.40605469 98.42378906 -88.81210938 97.84757812 -89.23046875 97.25390625 C-92.15455212 95.18187366 -95.43156383 95.65072977 -98.875 95.75 C-99.58269531 95.75515625 -100.29039063 95.7603125 -101.01953125 95.765625 C-104.78949637 95.82178835 -108.33437407 96.10874977 -112 97 C-112 95.35 -112 93.7 -112 92 C-110.0625 91.4375 -110.0625 91.4375 -108 91 C-107.67 91.33 -107.34 91.66 -107 92 C-100.18998942 93.03466348 -93.76028348 93.5854327 -87.64205933 90.07128906 C-84.31510839 87.373687 -81.43135168 84.26244283 -78.52734375 81.125 C-77.42704578 79.99730936 -76.32317141 78.87309846 -75.21595764 77.75219727 C-72.32933287 74.81057615 -69.49431847 71.8238402 -66.66772461 68.824646 C-63.79689336 65.79714846 -60.87749397 62.81729757 -57.96289062 59.83203125 C-45.84152796 47.45179611 -45.84152796 47.45179611 -34.42774963 34.42797852 C-33 33 -33 33 -30 32 C-28.51488525 44.37497405 -28.51488525 44.37497405 -31.74682617 50.08761597 C-34.29126558 53.01850921 -36.99199733 55.68557135 -39.84375 58.30859375 C-40.85592357 59.29272197 -41.86478656 60.28026539 -42.8704834 61.27101135 C-45.50186801 63.84564489 -48.1750536 66.37200298 -50.86029053 68.89025879 C-53.60210216 71.47745123 -56.30092752 74.10869702 -59.00390625 76.73632812 C-64.29529849 81.86778133 -69.63172467 86.94890171 -75 92 C-71.7 92.33 -68.4 92.66 -65 93 C-64.01 90.03 -63.02 87.06 -62 84 C-61.01 84.33 -60.02 84.66 -59 85 C-58.34 88.3 -57.68 91.6 -57 95 C-55.04848373 93.04848373 -55.29031251 89.54831255 -54.9375 86.9375 C-54.76089844 85.64714844 -54.58429688 84.35679687 -54.40234375 83.02734375 C-54.26957031 82.02832031 -54.13679688 81.02929688 -54 80 C-52.02 79.505 -52.02 79.505 -50 79 C-49.01 83.95 -48.02 88.9 -47 94 C-46.34 88.39 -45.68 82.78 -45 77 C-44.01 76.67 -43.02 76.34 -42 76 C-40.39950719 79.20098563 -40.33667218 82.73137115 -39.9375 86.25 C-39.80118164 87.37728516 -39.80118164 87.37728516 -39.66210938 88.52734375 C-39.17666578 92.71018859 -38.89921921 96.78064431 -39 101 C-38.34 101 -37.68 101 -37 101 C-37.01160156 100.31035156 -37.02320313 99.62070313 -37.03515625 98.91015625 C-37.09342124 92.84227348 -36.78903948 87.01642604 -36 81 C-34.68 80.67 -33.36 80.34 -32 80 C-30.63761354 84.08715937 -30.56876976 88.10082172 -30.28125 92.3828125 C-30.28503015 94.92413861 -30.28503015 94.92413861 -29 96 C-28.86722656 95.08476562 -28.73445313 94.16953125 -28.59765625 93.2265625 C-28.33275391 91.44378906 -28.33275391 91.44378906 -28.0625 89.625 C-27.80146484 87.84996094 -27.80146484 87.84996094 -27.53515625 86.0390625 C-27 83 -27 83 -26 81 C-25.01 81 -24.02 81 -23 81 C-21.7017874 86.76081841 -20.74293028 92.08739655 -21 98 C-20.34 98 -19.68 98 -19 98 C-18.67 96.35 -18.34 94.7 -18 93 C-17.01 93 -16.02 93 -15 93 C-15.03330917 92.05611923 -15.06661835 91.11223846 -15.10093689 90.13975525 C-15.40686933 81.18329001 -15.63072233 72.2279017 -15.77718258 63.26737118 C-15.85502473 58.6616053 -15.96029856 54.06010006 -16.1315918 49.45678711 C-17.36203548 15.54761647 -17.36203548 15.54761647 -9.56703186 6.91053772 C-6.53749524 4.19312134 -3.52602061 2.03769804 0 0 Z " fill="#474B98" transform="translate(200,50)"/>
<path d="M0 0 C5.61 0 11.22 0 17 0 C17.495 15.345 17.495 15.345 18 31 C20.31 29.02 22.62 27.04 25 25 C31.80018631 21.59990685 40.82737516 21.67928268 48.09765625 23.98046875 C50.5563098 25.18569108 52.76033083 26.42684975 55 28 C55.8353125 28.58523437 56.670625 29.17046875 57.53125 29.7734375 C63.1045971 34.80003219 66.40568988 42.30339103 67.5859375 49.64453125 C67.87567122 59.75178077 65.36604054 69.23307661 58.98046875 77.2109375 C51.72220706 83.76771038 42.60793406 86.36578662 33.08203125 86.28515625 C26.76075517 85.70029801 22.1091648 82.7940256 18 78 C17.67 79.98 17.34 81.96 17 84 C11.39 84 5.78 84 0 84 C0 56.28 0 28.56 0 0 Z " fill="#141F57" transform="translate(475,94)"/>
<path d="M0 0 C0.99 0.33 1.98 0.66 3 1 C3 6.28 3 11.56 3 17 C1.515 16.54625 0.03 16.0925 -1.5 15.625 C-3.33309499 15.08252729 -5.16642246 14.54083942 -7 14 C-7.67933594 13.78730469 -8.35867188 13.57460937 -9.05859375 13.35546875 C-17.3131534 10.97005546 -25.37378718 10.85531912 -33 15 C-34.56909759 16.56909759 -34.32018865 18.14046257 -34.4375 20.3125 C-34.52837891 21.48232422 -34.52837891 21.48232422 -34.62109375 22.67578125 C-33.85173644 25.55482277 -32.58512786 26.53370062 -30.06176758 28.03295898 C-24.6093642 30.59032663 -18.69897783 32.10754403 -12.94140625 33.82421875 C-5.13316503 36.27712056 1.30188382 38.97152554 5.97265625 45.9453125 C8.22469215 52.6414801 8.3624678 60.96925294 5.4375 67.5 C0.90770715 74.88656116 -5.86903961 78.54940143 -14 81 C-27.10247307 83.63094871 -40.65351522 81.93859391 -53 77 C-53 71.39 -53 65.78 -53 60 C-48 62 -48 62 -45.80859375 63.0703125 C-39.42289268 65.91073966 -33.51715409 66.40139913 -26.625 66.4375 C-25.75673584 66.4473291 -24.88847168 66.4571582 -23.99389648 66.46728516 C-19.21038114 66.40326371 -15.85692892 66.14239826 -12 63 C-10.43569752 59.87139505 -10.64372716 57.44397075 -11 54 C-15.11334175 49.61857895 -20.07980757 48.56271961 -25.6875 47.0625 C-45.36791115 41.44813327 -45.36791115 41.44813327 -51 33 C-54.01989217 26.7139124 -54.15997587 19.29260531 -52.34765625 12.5859375 C-49.39262571 6.01638463 -44.14277115 1.81804682 -37.8125 -1.375 C-26.2716697 -5.59897924 -11.36759356 -3.86939252 0 0 Z " fill="#111D57" transform="translate(416,98)"/>
<path d="M0 0 C5.94 0 11.88 0 18 0 C18.43570313 1.1859375 18.87140625 2.371875 19.3203125 3.59375 C19.92183832 5.22918016 20.52340375 6.86459575 21.125 8.5 C21.43904785 9.35480957 21.7530957 10.20961914 22.07666016 11.09033203 C23.62006623 15.28401566 25.17343646 19.4730043 26.765625 23.6484375 C27.03745605 24.36322266 27.30928711 25.07800781 27.58935547 25.81445312 C28.1006936 27.15556371 28.61518056 28.49547934 29.13330078 29.83398438 C30.41437732 33.19914722 31.41857334 36.44383227 32 40 C32.66 40 33.32 40 34 40 C34.15650024 39.01447144 34.15650024 39.01447144 34.31616211 38.0090332 C35.19348532 34.14862314 36.54528581 30.55469567 37.94140625 26.85546875 C38.22853989 26.08568192 38.51567352 25.31589508 38.81150818 24.52278137 C39.72496318 22.07634584 40.64365048 19.63191386 41.5625 17.1875 C42.18459166 15.52421823 42.80634029 13.86080813 43.42773438 12.19726562 C44.9472172 8.1297582 46.47376595 4.06500445 48 0 C53.94 0 59.88 0 66 0 C64.58678045 4.23965864 63.16390048 8.46989993 61.6875 12.6875 C61.29949219 13.80511719 60.91148437 14.92273438 60.51171875 16.07421875 C59.400835 19.08335361 58.11567372 21.97948868 56.76953125 24.890625 C54.59912376 29.60144623 52.58391081 34.35888163 50.625 39.16015625 C50.33031326 39.88184494 50.03562653 40.60353363 49.73200989 41.34709167 C48.51282191 44.33793758 47.29675224 47.33003131 46.08398438 50.32348633 C34.81563383 78.10527886 34.81563383 78.10527886 24.375 82.875 C18.83544284 84.71426358 12.75365767 84.60606244 7 84 C6.01 83.34 5.02 82.68 4 82 C3.70703125 78.9609375 3.70703125 78.9609375 3.8125 75.375 C3.83957031 74.18648438 3.86664062 72.99796875 3.89453125 71.7734375 C3.92933594 70.85820312 3.96414063 69.94296875 4 69 C4.89203125 69.02320313 5.7840625 69.04640625 6.703125 69.0703125 C7.87359375 69.08835937 9.0440625 69.10640625 10.25 69.125 C11.41015625 69.14820313 12.5703125 69.17140625 13.765625 69.1953125 C16.85240373 69.00891282 18.46009957 68.6892734 21 67 C23.34822488 63.71248517 23.33786837 60.95804485 23 57 C21.88296217 53.54446902 20.43815885 50.24739375 18.984375 46.921875 C18.36601776 45.4719516 18.36601776 45.4719516 17.73516846 43.99273682 C16.41685721 40.90738971 15.08387181 37.82864744 13.75 34.75 C12.43377154 31.68427448 11.12055353 28.61727259 9.80767822 25.55010986 C8.99114275 23.6455983 8.17208933 21.7421635 7.35003662 19.84002686 C0 2.80730726 0 2.80730726 0 0 Z " fill="#131E57" transform="translate(623,119)"/>
<path d="M0 0 C5.61 0 11.22 0 17 0 C17 5.94 17 11.88 17 18 C21.95 18 26.9 18 32 18 C32 22.29 32 26.58 32 31 C27.05 31 22.1 31 17 31 C17.07410043 35.05763739 17.15701087 39.11360639 17.26245117 43.17041016 C17.29564193 44.54952667 17.32369217 45.92877711 17.34643555 47.30810547 C17.38008642 49.29422306 17.43394729 51.27996559 17.48828125 53.265625 C17.51446533 54.45961914 17.54064941 55.65361328 17.56762695 56.88378906 C18.03018629 60.21755948 18.63612384 61.64465769 21 64 C23.49407252 64.6950739 23.49407252 64.6950739 26.1875 64.75 C27.775625 64.8325 29.36375 64.915 31 65 C31 69.29 31 73.58 31 78 C21.93128864 79.51145189 13.95698493 80.38312787 6 75 C0.50216966 69.3447139 -0.15419188 64.07130723 -0.09765625 56.390625 C-0.0962413 55.66381531 -0.09482635 54.93700562 -0.09336853 54.18817139 C-0.08778792 51.87540506 -0.07523904 49.56273688 -0.0625 47.25 C-0.05748249 45.67838682 -0.05292002 44.10677211 -0.04882812 42.53515625 C-0.03782485 38.69006657 -0.02057361 34.8450499 0 31 C-3.3 31 -6.6 31 -10 31 C-10 26.71 -10 22.42 -10 18 C-6.7 18 -3.4 18 0 18 C0 12.06 0 6.12 0 0 Z " fill="#17235A" transform="translate(703,101)"/>
<path d="M0 0 C0.73347656 -0.00773437 1.46695313 -0.01546875 2.22265625 -0.0234375 C2.94324219 -0.02085938 3.66382813 -0.01828125 4.40625 -0.015625 C5.04884766 -0.01336914 5.69144531 -0.01111328 6.35351562 -0.00878906 C8.5 0.25 8.5 0.25 14.5 2.25 C14.5 6.87 14.5 11.49 14.5 16.25 C13.613125 15.92 12.72625 15.59 11.8125 15.25 C6.24170358 13.64524383 0.23637695 13.70444247 -5.5 14.25 C-7.78728734 16.08883881 -7.78728734 16.08883881 -7.625 18.875 C-7.58375 19.65875 -7.5425 20.4425 -7.5 21.25 C-3.16128545 23.49970384 1.11449963 25.52226973 5.6875 27.25 C11.08846447 29.39547515 14.41040816 31.29624911 17.3125 36.5 C19.01341117 41.87129842 19.29363153 45.9157896 17.4375 51.375 C13.60213488 57.06618696 8.85942776 60.87091804 2.21875 62.78125 C-7.01919895 64.37399982 -15.88586102 63.96299094 -24.5 60.25 C-25.5 59.25 -25.5 59.25 -25.59765625 56.08984375 C-25.58025391 54.15818359 -25.58025391 54.15818359 -25.5625 52.1875 C-25.55347656 50.89714844 -25.54445313 49.60679687 -25.53515625 48.27734375 C-25.52355469 47.27832031 -25.51195312 46.27929688 -25.5 45.25 C-21.5 46.58333333 -17.5 47.91666667 -13.5 49.25 C-11.6903182 49.36880354 -9.87603553 49.4251965 -8.0625 49.4375 C-6.64130859 49.45876953 -6.64130859 49.45876953 -5.19140625 49.48046875 C-2.45498356 49.24614518 -0.83571877 48.64701383 1.5 47.25 C1.5 45.27 1.5 43.29 1.5 41.25 C0.95472656 41.00765625 0.40945313 40.7653125 -0.15234375 40.515625 C-1.7433171 39.80852573 -3.33307241 39.09868217 -4.921875 38.38671875 C-6.56919911 37.66039857 -8.22493506 36.95268186 -9.890625 36.26953125 C-16.07038007 33.6946333 -20.69924873 30.9511269 -24.5 25.25 C-25.16660924 19.44429862 -25.3190629 14.04563789 -22.875 8.6875 C-16.16338656 1.79926516 -9.28934995 -0.09795448 0 0 Z " fill="#152057" transform="translate(864.5,116.75)"/>
<path d="M0 0 C0.66 0.33 1.32 0.66 2 1 C2.48133524 3.76916323 2.84365743 6.45963519 3.125 9.25 C3.21136719 10.01441406 3.29773438 10.77882812 3.38671875 11.56640625 C3.80322755 15.39432046 4.10798195 19.1435018 4 23 C4.99 23 5.98 23 7 23 C7.69114343 17.01959982 7.69114343 17.01959982 8.21875 11.0234375 C8.2909375 10.04632813 8.363125 9.06921875 8.4375 8.0625 C8.49808594 7.14597656 8.55867188 6.22945312 8.62109375 5.28515625 C9 3 9 3 11 1 C11.12060791 1.90093384 11.12060791 1.90093384 11.24365234 2.82006836 C11.61139462 5.52724957 11.9930023 8.23229515 12.375 10.9375 C12.50132812 11.88302734 12.62765625 12.82855469 12.7578125 13.80273438 C12.95117188 15.15141602 12.95117188 15.15141602 13.1484375 16.52734375 C13.32125244 17.77632446 13.32125244 17.77632446 13.49755859 19.05053711 C13.66336426 19.69385986 13.82916992 20.33718262 14 21 C14.66 21.33 15.32 21.66 16 22 C16.66 15.07 17.32 8.14 18 1 C18.66 1 19.32 1 20 1 C20.99 5.95 21.98 10.9 23 16 C23.99 16.33 24.98 16.66 26 17 C26.185625 15.329375 26.185625 15.329375 26.375 13.625 C27 10 27 10 29 8 C29 28.13 29 48.26 29 69 C28.34 69 27.68 69 27 69 C25.5546875 67.53125 25.5546875 67.53125 23.875 65.5 C20.13297514 61.0953249 16.12028686 57.04757591 12 53 C10.33253848 51.33412856 8.66598758 49.66734548 7 48 C6.17242187 47.17242187 5.34484375 46.34484375 4.4921875 45.4921875 C-15 26 -15 26 -17.62573242 23.37207031 C-19.44966653 21.54982417 -21.27799389 19.73265049 -23.11328125 17.921875 C-24.17970987 16.86460589 -25.2461159 15.80731401 -26.3125 14.75 C-27.13717773 13.93789062 -27.13717773 13.93789062 -27.97851562 13.109375 C-29.3379533 11.75838103 -30.67152124 10.3814484 -32 9 C-32 8.67 -32 8.34 -32 8 C-27.71 8 -23.42 8 -19 8 C-18.67 6.68 -18.34 5.36 -18 4 C-17.34 4 -16.68 4 -16 4 C-15.80664062 5.14339844 -15.61328125 6.28679687 -15.4140625 7.46484375 C-15.15150234 8.95581037 -14.88845639 10.44669149 -14.625 11.9375 C-14.49867188 12.69224609 -14.37234375 13.44699219 -14.2421875 14.22460938 C-13.89452437 16.16283135 -13.45356496 18.08379205 -13 20 C-12.34 20.33 -11.68 20.66 -11 21 C-10.34 14.73 -9.68 8.46 -9 2 C-8.34 2.33 -7.68 2.66 -7 3 C-6.51835976 5.43793207 -6.15781367 7.78813018 -5.875 10.25 C-5.78863281 10.91902344 -5.70226562 11.58804688 -5.61328125 12.27734375 C-5.16857081 15.87032177 -4.90179302 19.38037144 -5 23 C-4.01 23 -3.02 23 -2 23 C-1.90912109 21.515 -1.90912109 21.515 -1.81640625 20 C-1.39539534 13.30533362 -0.94925871 6.64481097 0 0 Z " fill="#F6F4F8" transform="translate(156,137)"/>
<path d="M0 0 C1.02287109 -0.01836914 1.02287109 -0.01836914 2.06640625 -0.03710938 C2.74316406 -0.03904297 3.41992188 -0.04097656 4.1171875 -0.04296875 C5.01993408 -0.04913208 5.01993408 -0.04913208 5.94091797 -0.05541992 C9.07293735 0.29293233 12.09491861 1.32176246 15.125 2.1875 C15.125 7.1375 15.125 12.0875 15.125 17.1875 C12.815 16.5275 10.505 15.8675 8.125 15.1875 C0.50338569 14.40719187 -5.77837329 14.25831245 -11.875 19.1875 C-15.75347692 23.06597692 -16.18822031 26.39139188 -16.375 31.6875 C-16.20070111 36.96454907 -15.68300702 40.27657387 -11.875 44.1875 C-5.92124275 48.503974 -0.0159788 48.64580162 7.125 48.1875 C9.87385025 47.67927206 12.43892134 46.98337516 15.125 46.1875 C15.125 50.8075 15.125 55.4275 15.125 60.1875 C5.40079321 63.42890226 -8.17908341 64.62896075 -17.75 60.125 C-19.94140625 58.72265625 -19.94140625 58.72265625 -21.875 57.1875 C-22.52339844 56.69121094 -23.17179688 56.19492188 -23.83984375 55.68359375 C-30.04421168 50.24001512 -33.3557859 43.41719533 -34.35546875 35.2734375 C-34.86422758 25.85470486 -33.23055233 18.67787365 -27.30078125 11.203125 C-19.61090947 2.81417396 -11.13414404 0.01040574 0 0 Z " fill="#131F57" transform="translate(811.875,116.8125)"/>
<path d="M0 0 C4.42334747 3.79144069 8.66067394 7.51401874 12.75170898 11.62231445 C13.27942398 12.14827713 13.80713898 12.67423981 14.35084534 13.21614075 C16.06842662 14.92937325 17.78238671 16.64617412 19.49609375 18.36328125 C20.6966365 19.56314957 21.8973276 20.76286947 23.09815979 21.96244812 C25.60018853 24.46300989 28.10041754 26.96535342 30.59936523 29.46899414 C33.80962431 32.68498711 37.02440205 35.89641998 40.24050808 39.10656452 C42.71374263 41.57619793 45.18460593 44.04819263 47.65474129 46.52092552 C48.84020566 47.70705849 50.02641748 48.8924449 51.213377 50.07708168 C52.86269298 51.7238745 54.50879753 53.37380979 56.15405273 55.0246582 C56.6479953 55.51657654 57.14193787 56.00849487 57.65084839 56.51531982 C61 59.88572986 61 59.88572986 61 61 C57.37 61 53.74 61 50 61 C49.01 58.69 48.02 56.38 47 54 C46.34 54 45.68 54 45 54 C44.01 58.29 43.02 62.58 42 67 C39.98996319 62.97992638 39.37917837 59.62230092 38.875 55.25 C38.78863281 54.55261719 38.70226562 53.85523438 38.61328125 53.13671875 C38.40228154 51.42527668 38.20024499 49.71273371 38 48 C37.34 48 36.68 48 36 48 C34.77305221 51.68084338 34.38949492 55.35391347 33.9375 59.1875 C33.84662109 59.93708984 33.75574219 60.68667969 33.66210938 61.45898438 C33.4386269 63.30565535 33.21894487 65.15278554 33 67 C30.64073796 64.64073796 30.66842602 63.87599311 30.3671875 60.6484375 C30.24150391 59.37226563 30.24150391 59.37226563 30.11328125 58.0703125 C29.99533203 56.73613281 29.99533203 56.73613281 29.875 55.375 C29.78863281 54.4778125 29.70226562 53.580625 29.61328125 52.65625 C29.4009076 50.4381252 29.19682915 48.21954931 29 46 C28.34 46 27.68 46 27 46 C26.01 53.59 25.02 61.18 24 69 C23.67 69 23.34 69 23 69 C21.515 57.615 21.515 57.615 20 46 C19.01 46.495 19.01 46.495 18 47 C17.4368388 49.1264918 17.4368388 49.1264918 17.1484375 51.69140625 C17.01953125 52.63564453 16.890625 53.57988281 16.7578125 54.55273438 C16.63148438 55.54595703 16.50515625 56.53917969 16.375 57.5625 C16.2409375 58.55958984 16.106875 59.55667969 15.96875 60.58398438 C15.63770112 63.05502779 15.31517856 65.52689052 15 68 C14.67 68 14.34 68 14 68 C12.515 58.595 12.515 58.595 11 49 C10.01 49 9.02 49 8 49 C7.34 54.61 6.68 60.22 6 66 C5.01 64.68 4.02 63.36 3 62 C2.01 61.67 1.02 61.34 0 61 C0 40.87 0 20.74 0 0 Z " fill="#F9FAFA" transform="translate(218,82)"/>
<path d="M0 0 C5.61 0 11.22 0 17 0 C17.33 23.43 17.66 46.86 18 71 C20.64 71.33 23.28 71.66 26 72 C26.02685938 74.14576637 26.04633088 76.29162645 26.0625 78.4375 C26.07410156 79.63246094 26.08570313 80.82742187 26.09765625 82.05859375 C26 85 26 85 25 86 C18.49805383 86.44098373 12.03308815 86.63947606 6 84 C2.05135467 80.05135467 0.15217334 76.15793233 -0.24050903 70.58940125 C-0.23606781 69.28590225 -0.23162659 67.98240326 -0.22705078 66.6394043 C-0.22734283 65.91690994 -0.22763489 65.19441559 -0.22793579 64.45002747 C-0.22654839 62.07463345 -0.21101525 59.69955761 -0.1953125 57.32421875 C-0.19158027 55.67226839 -0.18873429 54.0203158 -0.18673706 52.36836243 C-0.17911714 48.02987509 -0.15948281 43.6915226 -0.1373291 39.35308838 C-0.11683526 34.92225977 -0.10772779 30.49140927 -0.09765625 26.06054688 C-0.0762353 17.37362927 -0.04106659 8.68684697 0 0 Z " fill="#1E295E" transform="translate(592,93)"/>
<path d="M0 0 C0.66 0 1.32 0 2 0 C3.49077631 12.40446932 3.49077631 12.40446932 0.24630737 18.05328369 C-2.30978133 20.93843846 -5.02149666 23.55586229 -7.87890625 26.1328125 C-8.89389448 27.10447579 -9.90514693 28.08005489 -10.91282654 29.05929565 C-13.55061903 31.6065945 -16.22758821 34.10791921 -18.9185791 36.59881592 C-23.23721944 40.60815733 -27.49692435 44.67941293 -31.74668694 48.76150131 C-33.23412264 50.17649244 -34.74116786 51.5677405 -36.25233459 52.95730591 C-37.15334396 53.80944672 -38.05435333 54.66158752 -38.98266602 55.53955078 C-39.78430679 56.28262482 -40.58594757 57.02569885 -41.41188049 57.79129028 C-43.26852409 59.89855471 -43.26852409 59.89855471 -42.91026306 62.59738159 C-41.55755089 66.16783424 -38.98749869 68.392278 -36.25 70.9375 C-32.20836904 74.77605882 -28.49805436 78.65334356 -25 83 C-27 85 -27 85 -30.125 85.125 C-31.07375 85.08375 -32.0225 85.0425 -33 85 C-33.33 84.34 -33.66 83.68 -34 83 C-34.99 83.99 -35.98 84.98 -37 86 C-38.67257355 84.5484451 -40.33791758 83.08855591 -42 81.625 C-42.928125 80.81289062 -43.85625 80.00078125 -44.8125 79.1640625 C-45.534375 78.44992188 -46.25625 77.73578125 -47 77 C-47 76.34 -47 75.68 -47 75 C-47.66 75 -48.32 75 -49 75 C-50.62109375 73.35546875 -50.62109375 73.35546875 -52.4375 71.1875 C-53.61897919 69.78656679 -54.8062504 68.3904923 -56 67 C-56.40605469 66.42378906 -56.81210938 65.84757812 -57.23046875 65.25390625 C-60.15455212 63.18187366 -63.43156383 63.65072977 -66.875 63.75 C-67.58269531 63.75515625 -68.29039063 63.7603125 -69.01953125 63.765625 C-72.78949637 63.82178835 -76.33437407 64.10874977 -80 65 C-80 63.35 -80 61.7 -80 60 C-78.0625 59.4375 -78.0625 59.4375 -76 59 C-75.67 59.33 -75.34 59.66 -75 60 C-68.18998942 61.03466348 -61.76028348 61.5854327 -55.64205933 58.07128906 C-52.31510839 55.373687 -49.43135168 52.26244283 -46.52734375 49.125 C-45.42704578 47.99730936 -44.32317141 46.87309846 -43.21595764 45.75219727 C-40.32933287 42.81057615 -37.49431847 39.8238402 -34.66772461 36.824646 C-31.79689336 33.79714846 -28.87749397 30.81729757 -25.96289062 27.83203125 C-13.83792769 15.37043851 -13.83792769 15.37043851 -2.23243713 2.42797852 C-1.51409608 1.59566378 -0.77741935 0.77741935 0 0 Z " fill="#4D5BA7" transform="translate(168,82)"/>
<path d="M0 0 C5.61 0 11.22 0 17 0 C17 19.47 17 38.94 17 59 C11.39 59 5.78 59 0 59 C0 39.53 0 20.06 0 0 Z " fill="#192459" transform="translate(556,119)"/>
<path d="M0 0 C5.61 0 11.22 0 17 0 C17 19.47 17 38.94 17 59 C11.39 59 5.78 59 0 59 C0 39.53 0 20.06 0 0 Z " fill="#1A2459" transform="translate(439,119)"/>
<path d="M0 0 C5.28 0 10.56 0 16 0 C16 19.47 16 38.94 16 59 C10.72 59 5.44 59 0 59 C0 39.53 0 20.06 0 0 Z " fill="#121D53" transform="translate(748,119)"/>
<path d="M0 0 C4.43090593 2.58054634 7.62763117 5.31560007 9.7109375 10.08984375 C10.72367869 16.92825807 10.45865764 22.80078289 6.2578125 28.46484375 C2.70541492 32.19665535 -1.05003277 34.27400576 -6.2890625 34.52734375 C-11.04013149 34.2424634 -15.30323242 33.01409771 -18.80078125 29.625 C-23.59001922 24.01239733 -23.80322356 19.91306244 -23.7734375 12.66015625 C-23.13802418 7.97654517 -21.51586724 5.79140397 -18.2109375 2.54296875 C-12.7416728 -1.59232895 -6.4850902 -2.57854269 0 0 Z " fill="#F6F7F7" transform="translate(515.2890625,131.91015625)"/>
<path d="M0 0 C3.63 0 7.26 0 11 0 C11.09267099 9.4488689 11.16375 18.89758142 11.20724869 28.34680557 C11.22812571 32.73445942 11.2564451 37.12180241 11.30175781 41.50927734 C11.34521201 45.74328416 11.36913624 49.97699194 11.37950897 54.21120453 C11.38690117 55.82677671 11.4013365 57.44233249 11.42292023 59.0577774 C11.45194982 61.32045383 11.45595638 63.58189395 11.45410156 65.84472656 C11.46298401 67.13268127 11.47186646 68.42063599 11.48101807 69.74761963 C11 73 11 73 9.1005249 75.45111084 C7 77 7 77 4.9375 76.9375 C2.62974515 75.82084443 1.54204392 75.07212939 0 73 C-0.36076355 69.86787415 -0.36076355 69.86787415 -0.34057617 65.95825195 C-0.34101425 65.24580322 -0.34145233 64.53335449 -0.34190369 63.79931641 C-0.3398143 61.44535885 -0.31647715 59.09211431 -0.29296875 56.73828125 C-0.2873733 55.10589487 -0.28310296 53.47350345 -0.28010559 51.84111023 C-0.2686527 47.54525842 -0.23918187 43.24971104 -0.20599365 38.95397949 C-0.17530224 34.57027301 -0.16160225 30.18651733 -0.14648438 25.80273438 C-0.11431245 17.20168323 -0.06311093 8.60087949 0 0 Z " fill="#F5F4F8" transform="translate(196,145)"/>
<path d="M0 0 C2.90397088 1.30178005 5.08615827 2.42877149 7 5 C7.36076355 8.09416199 7.36076355 8.09416199 7.34057617 11.94995117 C7.34101425 12.65264633 7.34145233 13.35534149 7.34190369 14.07933044 C7.33981447 16.40082636 7.31647819 18.72159909 7.29296875 21.04296875 C7.28737324 22.65293483 7.28310293 24.26290602 7.28010559 25.87287903 C7.26865318 30.10954907 7.23918279 34.3459104 7.20599365 38.5824585 C7.17530119 42.9058413 7.16160203 47.22927401 7.14648438 51.55273438 C7.1143133 60.0352979 7.06311238 68.51761054 7 77 C3.37 77 -0.26 77 -4 77 C-4.09267099 67.5511311 -4.16375 58.10241858 -4.20724869 48.65319443 C-4.22812571 44.26554058 -4.2564451 39.87819759 -4.30175781 35.49072266 C-4.34521201 31.25671584 -4.36913624 27.02300806 -4.37950897 22.78879547 C-4.38690117 21.17322329 -4.4013365 19.55766751 -4.42292023 17.9422226 C-4.45194982 15.67954617 -4.45595638 13.41810605 -4.45410156 11.15527344 C-4.46298401 9.86731873 -4.47186646 8.57936401 -4.48101807 7.25238037 C-3.92308847 3.47996639 -2.94727465 2.32119662 0 0 Z " fill="#F5F7F8" transform="translate(200,66)"/>
<path d="M0 0 C0.99 0.33 1.98 0.66 3 1 C3.66 7.27 4.32 13.54 5 20 C6.25764788 16.22705637 6.36832542 12.64427268 6.62109375 8.69140625 C6.99453522 6.03881681 7.65929668 4.29602229 9 2 C9.99 2.33 10.98 2.66 12 3 C12.66 7.95 13.32 12.9 14 18 C14.33 18 14.66 18 15 18 C15.66 15.03 16.32 12.06 17 9 C18.32 9 19.64 9 21 9 C21.66 11.31 22.32 13.62 23 16 C26.96 16 30.92 16 35 16 C35 16.66 35 17.32 35 18 C30.38 18 25.76 18 21 18 C20.505 16.02 20.505 16.02 20 14 C19.34 14 18.68 14 18 14 C17.95101562 14.81984375 17.90203125 15.6396875 17.8515625 16.484375 C17.77679688 17.56203125 17.70203125 18.6396875 17.625 19.75 C17.55539062 20.81734375 17.48578125 21.8846875 17.4140625 22.984375 C17.0271777 25.80206432 16.44313834 27.5830366 15 30 C14.34 29.67 13.68 29.34 13 29 C12.359501 26.12950676 11.83181216 23.33658206 11.375 20.4375 C10.694375 16.2609375 10.694375 16.2609375 10 12 C9.01 19.26 8.02 26.52 7 34 C6.01 34 5.02 34 4 34 C3.01 27.4 2.02 20.8 1 14 C-0.32 20.27 -1.64 26.54 -3 33 C-4.485 32.505 -4.485 32.505 -6 32 C-6.19916016 30.42798828 -6.19916016 30.42798828 -6.40234375 28.82421875 C-6.58057235 27.44529222 -6.75896641 26.06638707 -6.9375 24.6875 C-7.02451172 23.99720703 -7.11152344 23.30691406 -7.20117188 22.59570312 C-7.59210135 19.59857712 -8.0415004 16.87549881 -9 14 C-9.66 18.95 -10.32 23.9 -11 29 C-12.32 29 -13.64 29 -15 29 C-15.66 25.04 -16.32 21.08 -17 17 C-18.58272601 18.58272601 -18.34735747 20.38034003 -18.5625 22.5625 C-18.64628906 23.38878906 -18.73007813 24.21507812 -18.81640625 25.06640625 C-18.87699219 25.70449219 -18.93757812 26.34257812 -19 27 C-19.99 27.33 -20.98 27.66 -22 28 C-22.29003906 27.04287109 -22.29003906 27.04287109 -22.5859375 26.06640625 C-22.84632813 25.24011719 -23.10671875 24.41382813 -23.375 23.5625 C-23.63023437 22.73878906 -23.88546875 21.91507813 -24.1484375 21.06640625 C-24.80882227 18.82201984 -24.80882227 18.82201984 -27 18 C-27 17.34 -27 16.68 -27 16 C-25.0625 16.375 -25.0625 16.375 -23 17 C-22.67 17.66 -22.34 18.32 -22 19 C-21.86722656 18.08476562 -21.73445312 17.16953125 -21.59765625 16.2265625 C-21.42105469 15.03804687 -21.24445313 13.84953125 -21.0625 12.625 C-20.88847656 11.44164062 -20.71445313 10.25828125 -20.53515625 9.0390625 C-20 6 -20 6 -19 4 C-18.01 4 -17.02 4 -16 4 C-14.19276446 7.97591818 -13.56415134 11.6850046 -13 16 C-12.81824219 15.00097656 -12.63648438 14.00195312 -12.44921875 12.97265625 C-12.19785156 11.68230469 -11.94648438 10.39195312 -11.6875 9.0625 C-11.44386719 7.77472656 -11.20023438 6.48695313 -10.94921875 5.16015625 C-10.63597656 4.11730469 -10.32273438 3.07445312 -10 2 C-9.01 1.67 -8.02 1.34 -7 1 C-6.01 6.61 -5.02 12.22 -4 18 C-3.05335972 12.45105819 -3.05335972 12.45105819 -2.11547852 6.90063477 C-1.11111111 1.11111111 -1.11111111 1.11111111 0 0 Z " fill="#D44F60" transform="translate(245,127)"/>
<path d="M0 0 C0.66 0 1.32 0 2 0 C3.60049281 3.20098563 3.66332782 6.73137115 4.0625 10.25 C4.15337891 11.00152344 4.24425781 11.75304687 4.33789062 12.52734375 C4.82333422 16.71018859 5.10078079 20.78064431 5 25 C5.66 25 6.32 25 7 25 C6.98839844 24.31035156 6.97679687 23.62070313 6.96484375 22.91015625 C6.90657876 16.84227348 7.21096052 11.01642604 8 5 C9.32 4.67 10.64 4.34 12 4 C13.36238646 8.08715937 13.43123024 12.10082172 13.71875 16.3828125 C13.71496985 18.92413861 13.71496985 18.92413861 15 20 C15.13277344 19.08476562 15.26554687 18.16953125 15.40234375 17.2265625 C15.57894531 16.03804687 15.75554687 14.84953125 15.9375 13.625 C16.11152344 12.44164062 16.28554687 11.25828125 16.46484375 10.0390625 C17 7 17 7 18 5 C18.99 5 19.98 5 21 5 C22.2982126 10.76081841 23.25706972 16.08739655 23 22 C23.66 22 24.32 22 25 22 C25.33 20.35 25.66 18.7 26 17 C26.99 17 27.98 17 29 17 C28.01 20.63 27.02 24.26 26 28 C24.68 27.67 23.36 27.34 22 27 C21.66223316 25.2508503 21.32996329 23.50063855 21 21.75 C20.814375 20.77546875 20.62875 19.8009375 20.4375 18.796875 C20 16 20 16 20 12 C19.34 12 18.68 12 18 12 C18.02320313 12.67804688 18.04640625 13.35609375 18.0703125 14.0546875 C18.19803797 20.64167236 17.55461238 26.60110441 16 33 C15.01 32.67 14.02 32.34 13 32 C12.80083984 30.30230469 12.80083984 30.30230469 12.59765625 28.5703125 C12.4194658 27.08851821 12.24106971 25.60674864 12.0625 24.125 C11.93198242 23.00544922 11.93198242 23.00544922 11.79882812 21.86328125 C11.36673937 17.8046769 11.36673937 17.8046769 10 14 C9.95101562 14.68964844 9.90203125 15.37929687 9.8515625 16.08984375 C9.36271949 22.23409469 8.47174401 28.0149077 7 34 C6.01 34 5.02 34 4 34 C3.01 26.74 2.02 19.48 1 12 C-0.485 22.89 -0.485 22.89 -2 34 C-2.99 34 -3.98 34 -5 34 C-6.45732062 27.35009036 -7.45136137 20.7857936 -8 14 C-8.13277344 14.96421875 -8.26554687 15.9284375 -8.40234375 16.921875 C-8.66724609 18.81679687 -8.66724609 18.81679687 -8.9375 20.75 C-9.19853516 22.62945312 -9.19853516 22.62945312 -9.46484375 24.546875 C-9.86049338 27.09982593 -10.30446422 29.5186291 -11 32 C-11.99 31.67 -12.98 31.34 -14 31 C-14.33895656 29.27192682 -14.67091525 27.54248026 -15 25.8125 C-15.185625 24.84957031 -15.37125 23.88664062 -15.5625 22.89453125 C-15.96877612 20.2065794 -16.07933572 17.71228981 -16 15 C-16.66 15 -17.32 15 -18 15 C-18.33 16.32 -18.66 17.64 -19 19 C-23.29 19 -27.58 19 -32 19 C-32 18.34 -32 17.68 -32 17 C-28.37 17 -24.74 17 -21 17 C-20.01 14.03 -19.02 11.06 -18 8 C-17.01 8.33 -16.02 8.66 -15 9 C-14.34 12.3 -13.68 15.6 -13 19 C-11.04848373 17.04848373 -11.29031251 13.54831255 -10.9375 10.9375 C-10.76089844 9.64714844 -10.58429688 8.35679687 -10.40234375 7.02734375 C-10.26957031 6.02832031 -10.13679688 5.02929688 -10 4 C-8.68 3.67 -7.36 3.34 -6 3 C-5.01 7.95 -4.02 12.9 -3 18 C-2.86722656 16.78441406 -2.73445313 15.56882813 -2.59765625 14.31640625 C-2.41949909 12.73174516 -2.24110125 11.1471111 -2.0625 9.5625 C-1.97548828 8.76005859 -1.88847656 7.95761719 -1.79882812 7.13085938 C-1.11328125 1.11328125 -1.11328125 1.11328125 0 0 Z " fill="#D2556A" transform="translate(156,126)"/>
<path d="M0 0 C0.66 0.33 1.32 0.66 2 1 C1.835 1.78375 1.67 2.5675 1.5 3.375 C0.9376293 5.88208039 0.9376293 5.88208039 1 8 C0.34 8 -0.32 8 -1 8 C-1.5534764 10.07553648 -2 11.84365964 -2 14 C-2.30829262 19.33439662 -5.27871688 21.81519627 -8.9375 25.3125 C-9.48857422 25.86228516 -10.03964844 26.41207031 -10.60742188 26.97851562 C-14.71882764 31 -14.71882764 31 -17 31 C-17.38176392 31.87180908 -17.38176392 31.87180908 -17.77124023 32.76123047 C-19.13058676 35.23792581 -20.63911097 36.85134445 -22.66015625 38.8203125 C-23.37107422 39.52027344 -24.08199219 40.22023437 -24.81445312 40.94140625 C-25.55630859 41.66199219 -26.29816406 42.38257813 -27.0625 43.125 C-28.53473193 44.56287561 -30.00489156 46.00287708 -31.47265625 47.4453125 C-32.12500244 48.07969238 -32.77734863 48.71407227 -33.44946289 49.36767578 C-35.08886 50.93459167 -35.08886 50.93459167 -36 53 C-36.66 53 -37.32 53 -38 53 C-39.72083728 41.17992268 -39.72083728 41.17992268 -37.04418945 36.23376465 C-33.95805862 32.11555373 -30.09322174 28.76652835 -26.25 25.375 C-25.12413215 24.33316666 -24.00170098 23.28760661 -22.8828125 22.23828125 C-21.30428935 20.75835358 -19.72353625 19.28526425 -18.11236572 17.84091187 C-15.06624435 15.1023924 -12.50405109 12.23586157 -10 9 C-8.65719736 7.73573865 -7.28302173 6.50369709 -5.875 5.3125 C-3.84411909 3.5843353 -1.88645821 1.88645821 0 0 Z " fill="#3B3194" transform="translate(272,153)"/>
<path d="M0 0 C3.28958273 1.05481185 5.03813226 3.04375908 7.15625 5.69140625 C7.48625 6.02140625 7.81625 6.35140625 8.15625 6.69140625 C8.56474178 11.89967642 8.02329996 15.28843666 5.15625 19.69140625 C0.79503028 22.44436707 -3.85215859 22.60410824 -8.84375 21.69140625 C-12.42125921 18.69798017 -13.58960874 16.59678448 -14.84375 12.12890625 C-14.84375 7.02912892 -13.01987074 5.00589413 -9.71875 1.31640625 C-6.12856028 -0.71283142 -4.00214333 -0.63367269 0 0 Z " fill="#131E58" transform="translate(758.84375,88.30859375)"/>
<path d="M0 0 C3.12291165 1.68012647 5.39164837 3.78329674 7 7 C7.22287344 11.93228618 6.67082282 15.15717133 3.5625 19.0625 C0.03839668 21.50553781 -3.4552207 21.70245924 -7.65625 21.5 C-11.24585412 20.73421779 -12.86994058 18.88588695 -15 16 C-16.53214888 12.93570224 -16.22938548 10.3834358 -16 7 C-12.59623615 -0.29377969 -7.46576375 -1.17087289 0 0 Z " fill="#152059" transform="translate(569,89)"/>
<path d="M0 0 C2.89683868 2.2015974 4.39297231 3.78594462 6 7 C6.4128469 11.29360777 6.2493583 13.53567766 4.1875 17.375 C1.74008701 20.31189559 0.41086441 20.81108765 -3.3046875 21.30859375 C-8.06717342 21.54744183 -10.25574308 21.5805204 -14.125 18.5625 C-16.32017629 15.24621582 -16.73718122 12.11705127 -16.46484375 8.19140625 C-15.86531609 5.36506158 -14.85740522 3.12468072 -12.82421875 1.0390625 C-8.83090364 -1.23550242 -4.37980105 -0.90095007 0 0 Z " fill="#131D58" transform="translate(453,89)"/>
<path d="M0 0 C0.33 0.99 0.66 1.98 1 3 C1.51554443 2.7309082 2.03108887 2.46181641 2.56225586 2.18457031 C5.29289453 1.12879158 7.0623887 0.75839421 10 1 C14.4710689 3.97293006 17.94855517 7.82632244 21.5625 11.75 C22.57891367 12.80446644 23.59777404 13.85658028 24.61914062 14.90625 C32 22.59033159 32 22.59033159 32 25 C31.0409375 25.6496875 31.0409375 25.6496875 30.0625 26.3125 C27.50072404 28.40849852 27.34778436 29.78299472 27 33 C20.39246104 27.62177061 14.48986161 21.57821689 8.50952148 15.52563477 C6.34852091 13.34156675 4.17444914 11.17066749 2 9 C0.66666667 7.66666667 -0.66666667 6.33333333 -2 5 C-1.34 3.35 -0.68 1.7 0 0 Z " fill="#3D3897" transform="translate(134,164)"/>
<path d="M0 0 C0 1.32 0 2.64 0 4 C2.10878902 8.42845694 5.37996098 11.58415175 8.875 14.9375 C12.85338267 18.78194709 16.52121882 22.69324323 20 27 C18 29 18 29 14.875 29.125 C13.451875 29.063125 13.451875 29.063125 12 29 C11.67 28.34 11.34 27.68 11 27 C10.01 27.99 9.02 28.98 8 30 C6.32742645 28.5484451 4.66208242 27.08855591 3 25.625 C2.071875 24.81289062 1.14375 24.00078125 0.1875 23.1640625 C-0.534375 22.44992188 -1.25625 21.73578125 -2 21 C-2 20.34 -2 19.68 -2 19 C-2.66 19 -3.32 19 -4 19 C-6.47982682 16.98053707 -8.40144196 14.7704739 -10 12 C-9.68559757 7.44116472 -8.35321715 5.00901507 -5 2.0625 C-2 0 -2 0 0 0 Z " fill="#474CA0" transform="translate(123,138)"/>
<path d="M0 0 C0.99 0 1.98 0 3 0 C4.36238646 4.08715937 4.43123024 8.10082172 4.71875 12.3828125 C4.71496985 14.92413861 4.71496985 14.92413861 6 16 C6.13277344 15.08476562 6.26554688 14.16953125 6.40234375 13.2265625 C6.57894531 12.03804687 6.75554687 10.84953125 6.9375 9.625 C7.11152344 8.44164062 7.28554687 7.25828125 7.46484375 6.0390625 C8 3 8 3 9 1 C9.99 1 10.98 1 12 1 C13.2982126 6.76081841 14.25706972 12.08739655 14 18 C14.66 18 15.32 18 16 18 C16.33 16.35 16.66 14.7 17 13 C17.99 13 18.98 13 20 13 C19.01 16.63 18.02 20.26 17 24 C15.68 23.67 14.36 23.34 13 23 C12.66223316 21.2508503 12.32996329 19.50063855 12 17.75 C11.814375 16.77546875 11.62875 15.8009375 11.4375 14.796875 C11 12 11 12 11 8 C10.34 8 9.68 8 9 8 C9.02320313 8.67804688 9.04640625 9.35609375 9.0703125 10.0546875 C9.19803797 16.64167236 8.55461238 22.60110441 7 29 C6.01 28.67 5.02 28.34 4 28 C3.86722656 26.86820313 3.73445312 25.73640625 3.59765625 24.5703125 C3.4194658 23.08851821 3.24106971 21.60674864 3.0625 20.125 C2.97548828 19.37863281 2.88847656 18.63226563 2.79882812 17.86328125 C2.36673937 13.8046769 2.36673937 13.8046769 1 10 C0.67 13.63 0.34 17.26 0 21 C-0.33 21 -0.66 21 -1 21 C-1.836913 14.11156222 -2.10757325 7.86695417 -1 1 C-0.67 0.67 -0.34 0.34 0 0 Z " fill="#D5586D" transform="translate(165,130)"/>
<path d="M0 0 C0.66 0 1.32 0 2 0 C1.20533433 7.90428975 -1.88075206 11.80047214 -7.625 17.0625 C-8.33140625 17.73732422 -9.0378125 18.41214844 -9.765625 19.10742188 C-11.49549536 20.75547404 -13.23946878 22.3848484 -15 24 C-15.33 23.01 -15.66 22.02 -16 21 C-16.66 20.67 -17.32 20.34 -18 20 C-16.625 17.5 -16.625 17.5 -15 15 C-14.34 15 -13.68 15 -13 15 C-13.185625 14.0925 -13.37125 13.185 -13.5625 12.25 C-14.06176478 8.54117594 -14.02560038 6.34748112 -11.73046875 3.33203125 C-11.22128906 2.83058594 -10.71210938 2.32914063 -10.1875 1.8125 C-9.68605469 1.30332031 -9.18460937 0.79414063 -8.66796875 0.26953125 C-5.17840874 -2.38645705 -3.67913574 -2.45275716 0 0 Z " fill="#4847A5" transform="translate(286,146)"/>
<path d="M0 0 C1.1055189 0.93590504 2.20935453 1.87379858 3.3125 2.8125 C3.92738281 3.33457031 4.54226563 3.85664063 5.17578125 4.39453125 C7 6 7 6 8.23828125 7.68359375 C11.13326449 9.84680739 14.41234826 9.34982419 17.875 9.25 C18.93654297 9.24226562 18.93654297 9.24226562 20.01953125 9.234375 C23.78949637 9.17821165 27.33437407 8.89125023 31 8 C31.495 10.475 31.495 10.475 32 13 C30.34385343 13.38218767 28.67542976 13.71395102 27 14 C26.67 13.67 26.34 13.34 26 13 C23.54911118 12.87287308 21.13889455 12.81479317 18.6875 12.8125 C17.67139648 12.79413086 17.67139648 12.79413086 16.63476562 12.77539062 C12.94264485 12.76456329 10.07472354 12.84163496 7 15 C6.30062468 16.31647119 5.63270867 17.65022151 5 19 C4.01 19.66 3.02 20.32 2 21 C2.59950296 17.31733897 3.24758891 13.65456815 4 10 C3.34 10 2.68 10 2 10 C1.67 9.34 1.34 8.68 1 8 C-0.32 8 -1.64 8 -3 8 C-2.45276317 4.62537285 -1.9451 2.91765 0 0 Z " fill="#4F56A2" transform="translate(284,133)"/>
<path d="M0 0 C0.99 0 1.98 0 3 0 C4.65684137 3.7522584 5.50208163 7.26353061 6.125 11.3125 C6.29257813 12.38113281 6.46015625 13.44976562 6.6328125 14.55078125 C6.75398437 15.35902344 6.87515625 16.16726562 7 17 C7.33 17 7.66 17 8 17 C8 19.64 8 22.28 8 25 C6.68 25 5.36 25 4 25 C3.34 21.04 2.68 17.08 2 13 C0.41727399 14.58272601 0.65264253 16.38034003 0.4375 18.5625 C0.35371094 19.38878906 0.26992187 20.21507812 0.18359375 21.06640625 C0.12300781 21.70449219 0.06242188 22.34257812 0 23 C-0.99 23.33 -1.98 23.66 -3 24 C-3.29003906 23.04287109 -3.29003906 23.04287109 -3.5859375 22.06640625 C-3.84632813 21.24011719 -4.10671875 20.41382813 -4.375 19.5625 C-4.63023437 18.73878906 -4.88546875 17.91507813 -5.1484375 17.06640625 C-5.80882227 14.82201984 -5.80882227 14.82201984 -8 14 C-8 13.34 -8 12.68 -8 12 C-6.0625 12.375 -6.0625 12.375 -4 13 C-3.67 13.66 -3.34 14.32 -3 15 C-2.86722656 14.08476562 -2.73445312 13.16953125 -2.59765625 12.2265625 C-2.42105469 11.03804687 -2.24445313 9.84953125 -2.0625 8.625 C-1.88847656 7.44164062 -1.71445313 6.25828125 -1.53515625 5.0390625 C-1 2 -1 2 0 0 Z " fill="#D15067" transform="translate(226,131)"/>
<path d="M0 0 C4.37504435 4.37504435 2.99580694 14.19255548 3.00469971 20.14666748 C2.9439745 28.91185877 2.75247389 37.67434543 2.5625 46.4375 C2.50844914 49.11520895 2.45634909 51.79295468 2.40429688 54.47070312 C2.27627925 60.98061926 2.14102525 67.49035334 2 74 C1.34 74 0.68 74 0 74 C0 49.58 0 25.16 0 0 Z " fill="#061146" transform="translate(593,94)"/>
<path d="M0 0 C3.3 0 6.6 0 10 0 C10.07400528 6.37204425 10.12853333 12.74383989 10.16479492 19.11621094 C10.179907 21.28520056 10.20039735 23.4541595 10.22631836 25.62304688 C10.26259534 28.73575396 10.2797019 31.84805805 10.29296875 34.9609375 C10.30845261 35.934935 10.32393646 36.9089325 10.33988953 37.91244507 C10.34022942 39.26361923 10.34022942 39.26361923 10.34057617 40.64208984 C10.34723801 41.43706879 10.35389984 42.23204773 10.36076355 43.05111694 C10.24171158 43.69424835 10.12265961 44.33737976 10 45 C9.01 45.66 8.02 46.32 7 47 C7 32.15 7 17.3 7 2 C6.01 2.33 5.02 2.66 4 3 C1.8125 2.5625 1.8125 2.5625 0 2 C0 1.34 0 0.68 0 0 Z " fill="#0B1549" transform="translate(598,94)"/>
<path d="M0 0 C0 19.14 0 38.28 0 58 C-2.31 58 -4.62 58 -7 58 C-7 57.67 -7 57.34 -7 57 C-5.35 57 -3.7 57 -2 57 C-2.33 38.52 -2.66 20.04 -3 1 C-1 0 -1 0 0 0 Z " fill="#091345" transform="translate(572,119)"/>
<path d="M0 0 C0.66 0.33 1.32 0.66 2 1 C-0.29851998 8.49071242 -5.49061865 13.0130528 -11 18.375 C-11.91523438 19.28894531 -12.83046875 20.20289063 -13.7734375 21.14453125 C-20.57805488 27.85935163 -20.57805488 27.85935163 -24 29 C-23.46960703 24.942959 -21.42356448 23.05155434 -18.5625 20.25 C-17.75941406 19.45078125 -16.95632812 18.6515625 -16.12890625 17.828125 C-14 16 -14 16 -12 16 C-12.33 14.68 -12.66 13.36 -13 12 C-8.71 8.04 -4.42 4.08 0 0 Z " fill="#42369C" transform="translate(272,153)"/>
<path d="M0 0 C0.99 0.33 1.98 0.66 3 1 C3.99 5.95 4.98 10.9 6 16 C6.33 16 6.66 16 7 16 C7 18.64 7 21.28 7 24 C6.01 23.67 5.02 23.34 4 23 C3.66104344 21.27192682 3.32908475 19.54248026 3 17.8125 C2.814375 16.84957031 2.62875 15.88664063 2.4375 14.89453125 C2.03122388 12.2065794 1.92066428 9.71228981 2 7 C1.34 7 0.68 7 0 7 C-0.33 8.32 -0.66 9.64 -1 11 C-5.29 11 -9.58 11 -14 11 C-14 10.34 -14 9.68 -14 9 C-10.37 9 -6.74 9 -3 9 C-2.01 6.03 -1.02 3.06 0 0 Z " fill="#CB556F" transform="translate(138,134)"/>
<path d="M0 0 C0.99 0 1.98 0 3 0 C3.66 5.28 4.32 10.56 5 16 C4.67 16 4.34 16 4 16 C3.67 17.65 3.34 19.3 3 21 C2.67 21 2.34 21 2 21 C1.67 17.7 1.34 14.4 1 11 C0.34 15.62 -0.32 20.24 -1 25 C-4 22 -4 22 -4.08105469 19.74755859 C-3.94602539 18.88984863 -3.81099609 18.03213867 -3.671875 17.1484375 C-3.53136719 16.21515625 -3.39085937 15.281875 -3.24609375 14.3203125 C-3.08238281 13.34835938 -2.91867188 12.37640625 -2.75 11.375 C-2.60175781 10.3953125 -2.45351562 9.415625 -2.30078125 8.40625 C-1.16791102 1.16791102 -1.16791102 1.16791102 0 0 Z " fill="#CE5E7A" transform="translate(147,129)"/>
<path d="M0 0 C3.36179774 1.44077046 5.59156268 3.24750021 8 6 C8 6.66 8 7.32 8 8 C7.360625 8.433125 6.72125 8.86625 6.0625 9.3125 C3.50072404 11.40849852 3.34778436 12.78299472 3 16 C0.37165557 14.38255728 -1.62143433 13.09313638 -2.66015625 10.09375 C-3.21412525 6.68079154 -3.30272031 4.5264701 -1.5625 1.5 C-1.046875 1.005 -0.53125 0.51 0 0 Z " fill="#3C2F90" transform="translate(158,181)"/>
<path d="M0 0 C0.99 0.33 1.98 0.66 3 1 C3.66 7.93 4.32 14.86 5 22 C5.66 22 6.32 22 7 22 C7 25.96 7 29.92 7 34 C6.01 34 5.02 34 4 34 C2.47983837 25.58481953 1.72266614 17.5511272 2 9 C1.34 9 0.68 9 0 9 C0 6.03 0 3.06 0 0 Z " fill="#D45666" transform="translate(245,127)"/>
<path d="M0 0 C0.99 0.33 1.98 0.66 3 1 C4.1875 4.5625 4.1875 4.5625 5 8 C8.96 8 12.92 8 17 8 C17 8.66 17 9.32 17 10 C12.38 10 7.76 10 3 10 C2.67 8.68 2.34 7.36 2 6 C1.34 6 0.68 6 0 6 C-0.33 9.96 -0.66 13.92 -1 18 C-1.33 17.34 -1.66 16.68 -2 16 C-2.66 16 -3.32 16 -4 16 C-3.52546129 13.51986371 -3.04561015 11.04096744 -2.5625 8.5625 C-2.42779297 7.85544922 -2.29308594 7.14839844 -2.15429688 6.41992188 C-1.11328125 1.11328125 -1.11328125 1.11328125 0 0 Z " fill="#DF4557" transform="translate(263,135)"/>
<path d="M0 0 C0.99 0 1.98 0 3 0 C3.69897461 2.2644043 3.69897461 2.2644043 4 5 C2.73657227 6.94458008 2.73657227 6.94458008 0.81640625 8.76953125 C0.13642578 9.43017578 -0.54355469 10.09082031 -1.24414062 10.77148438 C-1.96794922 11.44501953 -2.69175781 12.11855469 -3.4375 12.8125 C-4.15744141 13.50537109 -4.87738281 14.19824219 -5.61914062 14.91210938 C-7.40007996 16.62228291 -9.19346102 18.31695799 -11 20 C-11.99 19.01 -12.98 18.02 -14 17 C-13.01 15.515 -13.01 15.515 -12 14 C-10.33333333 14 -8.66666667 14 -7 14 C-6.8453125 12.9171875 -6.8453125 12.9171875 -6.6875 11.8125 C-5.57638096 7.267013 -3.34650549 4.18714808 0 1 C0 0.67 0 0.34 0 0 Z " fill="#361F95" transform="translate(213,218)"/>
<path d="M0 0 C0.99 0.33 1.98 0.66 3 1 C3 1.66 3 2.32 3 3 C2.34 3 1.68 3 1 3 C1 27.42 1 51.84 1 77 C0.67 77 0.34 77 0 77 C0 51.59 0 26.18 0 0 Z " fill="#D4D6DE" transform="translate(218,145)"/>
<path d="M0 0 C4.875 1.75 4.875 1.75 6 4 C6.66 4.33 7.32 4.66 8 5 C6.6975667 7.90542812 5.29113732 9.8092961 3 12 C1.8274869 11.04882866 0.66212985 10.08882991 -0.5 9.125 C-1.1496875 8.59132812 -1.799375 8.05765625 -2.46875 7.5078125 C-2.9740625 7.01023438 -3.479375 6.51265625 -4 6 C-4 4 -4 4 -2 1.875 C-1.34 1.25625 -0.68 0.6375 0 0 Z " fill="#44489C" transform="translate(128,156)"/>
<path d="M0 0 C1.32 0.99 2.64 1.98 4 3 C0.37 6.63 -3.26 10.26 -7 14 C-7.99 13.01 -8.98 12.02 -10 11 C-7.00793014 6.55463907 -4.41309542 3.15221101 0 0 Z " fill="#4C4FAE" transform="translate(282,152)"/>
<path d="M0 0 C1.32 0 2.64 0 4 0 C3.51286902 4.41510774 2.14946803 6.30446645 -1.0625 9.3125 C-1.79597656 10.00988281 -2.52945313 10.70726563 -3.28515625 11.42578125 C-4.13400391 12.20501953 -4.13400391 12.20501953 -5 13 C-6.32 12.01 -7.64 11.02 -9 10 C-8.43410156 9.44570312 -7.86820313 8.89140625 -7.28515625 8.3203125 C-6.55167969 7.59585938 -5.81820312 6.87140625 -5.0625 6.125 C-4.33160156 5.40570313 -3.60070312 4.68640625 -2.84765625 3.9453125 C-0.94332001 2.12972808 -0.94332001 2.12972808 0 0 Z " fill="#4752A5" transform="translate(146,113)"/>
<path d="M0 0 C-0.33 0.99 -0.66 1.98 -1 3 C-1.38503552 5.72897438 -1.7398891 8.45128163 -2.0625 11.1875 C-2.15337891 11.93708984 -2.24425781 12.68667969 -2.33789062 13.45898438 C-2.5613731 15.30565535 -2.78105513 17.15278554 -3 19 C-6.72528736 15.27471264 -6.05452532 9.04797196 -6.0625 4 C-6.04673341 2.66659713 -6.02777514 1.33320679 -6 0 C-2.25 -1.125 -2.25 -1.125 0 0 Z " fill="#F4FCFA" transform="translate(254,130)"/>
<path d="M0 0 C1.32 0 2.64 0 4 0 C4.33 1.65 4.66 3.3 5 5 C3.34385343 5.38218767 1.67542976 5.71395102 0 6 C-0.33 5.67 -0.66 5.34 -1 5 C-3.52596259 4.76346477 -6.03107207 4.57826308 -8.5625 4.4375 C-9.27341797 4.39431641 -9.98433594 4.35113281 -10.71679688 4.30664062 C-12.47761912 4.20028223 -14.2387832 4.09961154 -16 4 C-16 3.34 -16 2.68 -16 2 C-14.92878906 1.93941406 -13.85757812 1.87882813 -12.75390625 1.81640625 C-11.35675609 1.73201463 -9.95962143 1.64736594 -8.5625 1.5625 C-7.50192383 1.50352539 -7.50192383 1.50352539 -6.41992188 1.44335938 C-2.91309581 1.52375562 -2.91309581 1.52375562 0 0 Z " fill="#EE595D" transform="translate(311,141)"/>
<path d="M0 0 C0.33 0 0.66 0 1 0 C1.7938642 7.21805755 2.07875823 13.80827843 1 21 C0.01 21.33 -0.98 21.66 -2 22 C-2.29003906 21.04287109 -2.29003906 21.04287109 -2.5859375 20.06640625 C-2.84632813 19.24011719 -3.10671875 18.41382813 -3.375 17.5625 C-3.63023437 16.73878906 -3.88546875 15.91507813 -4.1484375 15.06640625 C-4.80882227 12.82201984 -4.80882227 12.82201984 -7 12 C-7 11.34 -7 10.68 -7 10 C-5.0625 10.375 -5.0625 10.375 -3 11 C-2.67 11.66 -2.34 12.32 -2 13 C-1.34 8.71 -0.68 4.42 0 0 Z " fill="#D26175" transform="translate(225,133)"/>
<path d="M0 0 C0.78117187 0.19916016 0.78117187 0.19916016 1.578125 0.40234375 C4.93586102 1.23094635 8.31012199 1.36417055 11.75 1.5625 C12.44738281 1.60568359 13.14476563 1.64886719 13.86328125 1.69335938 C15.57531922 1.79889596 17.28763561 1.8998991 19 2 C19 2.66 19 3.32 19 4 C17.46279297 4.09087891 17.46279297 4.09087891 15.89453125 4.18359375 C14.53384305 4.26805026 13.17316657 4.35269567 11.8125 4.4375 C11.13896484 4.47681641 10.46542969 4.51613281 9.77148438 4.55664062 C6.10300898 4.78927565 2.58305794 5.17207011 -1 6 C-1.042721 4.33388095 -1.04063832 2.66617115 -1 1 C-0.67 0.67 -0.34 0.34 0 0 Z " fill="#E04446" transform="translate(89,141)"/>
<path d="M0 0 C0.66 0.66 1.32 1.32 2 2 C2.99 1.67 3.98 1.34 5 1 C4.67 6.61 4.34 12.22 4 18 C3.34 18 2.68 18 2 18 C1.6603981 16.12612523 1.32861309 14.25083303 1 12.375 C0.7215625 10.80878906 0.7215625 10.80878906 0.4375 9.2109375 C0.01284203 6.09425135 -0.07545206 3.14069188 0 0 Z " fill="#EDE5E8" transform="translate(159,133)"/>
<path d="M0 0 C0.99 0.33 1.98 0.66 3 1 C2.67 2.32 2.34 3.64 2 5 C1.67 4.34 1.34 3.68 1 3 C0.34 10.92 -0.32 18.84 -1 27 C-1.33 27 -1.66 27 -2 27 C-4.21894756 7.43912385 -4.21894756 7.43912385 0 0 Z " fill="#DB5065" transform="translate(254,129)"/>
<path d="M0 0 C0.33 0 0.66 0 1 0 C1.66 5.94 2.32 11.88 3 18 C2.01 18 1.02 18 0 18 C-0.33 18.99 -0.66 19.98 -1 21 C-1.66 20.67 -2.32 20.34 -3 20 C-2.01 13.4 -1.02 6.8 0 0 Z " fill="#ECE0E3" transform="translate(236,136)"/>
<path d="M0 0 C0.66 0 1.32 0 2 0 C2 2.31 2 4.62 2 7 C2.66 7 3.32 7 4 7 C4.33 5.35 4.66 3.7 5 2 C5.99 2 6.98 2 8 2 C7.01 5.63 6.02 9.26 5 13 C3.68 12.67 2.36 12.34 1 12 C0.67 8.04 0.34 4.08 0 0 Z " fill="#CE3447" transform="translate(177,141)"/>
<path d="M0 0 C0.66 0.66 1.32 1.32 2 2 C1.65453803 6.1455437 -0.09772792 9.35397851 -2 13 C-3.02213495 15.82215709 -3.02213495 15.82215709 -3.375 18.125 C-3.684375 19.053125 -3.684375 19.053125 -4 20 C-4.99 20.33 -5.98 20.66 -7 21 C-4.96192707 13.8821847 -2.59655258 6.93292719 0 0 Z " fill="#202C5F" transform="translate(665,135)"/>
<path d="M0 0 C0.33 0 0.66 0 1 0 C1 2.64 1 5.28 1 8 C1.66 8 2.32 8 3 8 C3.2071567 11.72882057 2.68590677 13.72735745 1 17 C0.61709538 18.99110401 0.27395385 20.99100513 0 23 C-2 21 -2 21 -2.25 17.6875 C-2.11786148 11.73025521 -1.00068447 5.86115192 0 0 Z " fill="#D76171" transform="translate(244,128)"/>
<path d="M0 0 C2.29633824 3.44450737 2.54016485 5.93812283 3 10 C3.33 10 3.66 10 4 10 C4 12.64 4 15.28 4 18 C3.01 18 2.02 18 1 18 C0.04380267 14.00204108 -0.1039592 10.29196078 -0.0625 6.1875 C-0.05347656 5.02605469 -0.04445312 3.86460937 -0.03515625 2.66796875 C-0.02355469 1.78753906 -0.01195312 0.90710938 0 0 Z " fill="#CC4358" transform="translate(150,142)"/>
<path d="M0 0 C0.33 0 0.66 0 1 0 C1.18175781 1.19496094 1.18175781 1.19496094 1.3671875 2.4140625 C2.21726983 7.78919843 3.08183442 12.88489179 5 18 C5.34976758 19.32911682 5.69096017 20.66082739 6 22 C5.01 22 4.02 22 3 22 C-1.04654428 15.08715353 -0.26901851 7.74175497 0 0 Z " fill="#0C184B" transform="translate(779,143)"/>
<path d="M0 0 C0.66 0 1.32 0 2 0 C1.85775413 2.52108103 1.71129879 5.04180403 1.5625 7.5625 C1.52318359 8.26697266 1.48386719 8.97144531 1.44335938 9.69726562 C1.17481721 14.1798541 0.69383803 18.56293497 0 23 C-0.33 23 -0.66 23 -1 23 C-1.33 17.39 -1.66 11.78 -2 6 C-1.67 6 -1.34 6 -1 6 C-0.67 4.02 -0.34 2.04 0 0 Z " fill="#EEF1F2" transform="translate(153,128)"/>
<path d="M0 0 C0.66 0.33 1.32 0.66 2 1 C2 1.66 2 2.32 2 3 C1.01 3.495 1.01 3.495 0 4 C-0.12375 4.639375 -0.2475 5.27875 -0.375 5.9375 C-1 8 -1 8 -2.875 9.0625 C-3.57625 9.371875 -4.2775 9.68125 -5 10 C-6.70921589 11.5412312 -6.70921589 11.5412312 -8 13 C-7.62472519 7.62106101 -6.00517004 5.51673467 -2 2 C-1.34 1.34 -0.68 0.68 0 0 Z " fill="#1E295F" transform="translate(848,120)"/>
<path d="M0 0 C0.33 0 0.66 0 1 0 C1.02703381 1.93742341 1.04641125 3.87495479 1.0625 5.8125 C1.07410156 6.89144531 1.08570313 7.97039062 1.09765625 9.08203125 C1 12 1 12 0 15 C-0.99 14.67 -1.98 14.34 -3 14 C-3 11.69 -3 9.38 -3 7 C-2.34 7 -1.68 7 -1 7 C-0.67 4.69 -0.34 2.38 0 0 Z " fill="#D23445" transform="translate(172,144)"/>
<path d="M0 0 C1.32 0.66 2.64 1.32 4 2 C4.66 1.34 5.32 0.68 6 0 C5.95875 0.763125 5.9175 1.52625 5.875 2.3125 C5.77919176 5.22718416 5.77919176 5.22718416 8 8 C7.34 8.66 6.68 9.32 6 10 C3.36 7.36 0.72 4.72 -2 2 C-1.34 1.34 -0.68 0.68 0 0 Z " fill="#5660A7" transform="translate(260,120)"/>
<path d="M0 0 C0.99 0.33 1.98 0.66 3 1 C1.7580393 4.43927579 0.44259716 7.25207819 -2 10 C-2.66 10 -3.32 10 -4 10 C-3.38461538 3.47692308 -3.38461538 3.47692308 -1.4375 1.0625 C-0.7259375 0.5365625 -0.7259375 0.5365625 0 0 Z " fill="#0B1656" transform="translate(788,125)"/>
<path d="M0 0 C0.33 0 0.66 0 1 0 C1.74464946 6.87368733 2.18225237 13.16920852 1 20 C0.01 20 -0.98 20 -2 20 C-1.34 13.4 -0.68 6.8 0 0 Z " fill="#D86D7D" transform="translate(154,133)"/>
<path d="M0 0 C0.66 0 1.32 0 2 0 C2.31563182 5.26053037 1.66590937 8.44573816 -1 13 C-1.99 12.67 -2.98 12.34 -4 12 C-3.34 11.01 -2.68 10.02 -2 9 C-1.33386665 6.72461677 -1.33386665 6.72461677 -0.875 4.3125 C-0.70742188 3.50425781 -0.53984375 2.69601563 -0.3671875 1.86328125 C-0.24601563 1.24839844 -0.12484375 0.63351563 0 0 Z " fill="#242F60" transform="translate(765,95)"/>
<path d="M0 0 C0.33 0.99 0.66 1.98 1 3 C-2.3 6.3 -5.6 9.6 -9 13 C-9.66 12.34 -10.32 11.68 -11 11 C-7.37 7.37 -3.74 3.74 0 0 Z " fill="#5B8EB6" transform="translate(196,54)"/>
<path d="M0 0 C3.03639077 5.38869349 2.46246713 11.15013147 1 17 C-0.55078125 15.94921875 -0.55078125 15.94921875 -2 14 C-1.85546875 10.64453125 -1.85546875 10.64453125 -1.1875 6.8125 C-0.97480469 5.54019531 -0.76210937 4.26789063 -0.54296875 2.95703125 C-0.36378906 1.98121094 -0.18460938 1.00539062 0 0 Z " fill="#D15A6C" transform="translate(145,137)"/>
<path d="M0 0 C2.97 0.33 5.94 0.66 9 1 C9.33 2.65 9.66 4.3 10 6 C9.01 6.66 8.02 7.32 7 8 C5.83035398 6.8572081 4.66435444 5.71068285 3.5 4.5625 C2.8503125 3.92441406 2.200625 3.28632813 1.53125 2.62890625 C0 1 0 1 0 0 Z " fill="#5D62AF" transform="translate(267,130)"/>
<path d="M0 0 C0 0.66 0 1.32 0 2 C-2.88415883 3.44207941 -5.41721528 3.09394887 -8.625 3.0625 C-9.81351562 3.05347656 -11.00203125 3.04445312 -12.2265625 3.03515625 C-13.14179688 3.02355469 -14.05703125 3.01195312 -15 3 C-15.33 2.34 -15.66 1.68 -16 1 C-13.89594609 0.83191581 -11.79175242 0.66558052 -9.6875 0.5 C-8.51574219 0.4071875 -7.34398437 0.314375 -6.13671875 0.21875 C-4.094806 0.07635011 -2.0468721 0 0 0 Z " fill="#232F5F" transform="translate(398,177)"/>
<path d="M0 0 C0.99 0.33 1.98 0.66 3 1 C3 5.62 3 10.24 3 15 C2.67 15 2.34 15 2 15 C2 13.02 2 11.04 2 9 C1.34 9 0.68 9 0 9 C0 6.03 0 3.06 0 0 Z " fill="#C83653" transform="translate(245,127)"/>
<path d="M0 0 C0.33 0 0.66 0 1 0 C1.29341888 5.67276511 1.00559652 8.99067246 -2 14 C-2.99 13.67 -3.98 13.34 -5 13 C-3.35 8.71 -1.7 4.42 0 0 Z " fill="#27335D" transform="translate(882,157)"/>
<path d="M0 0 C0.66 0 1.32 0 2 0 C2 1.32 2 2.64 2 4 C-2.29 4 -6.58 4 -11 4 C-11 3.34 -11 2.68 -11 2 C-7.37 2 -3.74 2 0 2 C0 1.34 0 0.68 0 0 Z " fill="#D63955" transform="translate(135,141)"/>
<path d="M0 0 C0.33 0 0.66 0 1 0 C1.08333357 4.8333472 0.95261487 9.23692563 0 14 C-0.99 14 -1.98 14 -3 14 C-3 11.69 -3 9.38 -3 7 C-2.01 7 -1.02 7 0 7 C0 4.69 0 2.38 0 0 Z " fill="#CC384B" transform="translate(163,146)"/>
<path d="M0 0 C0.66 0.33 1.32 0.66 2 1 C0.55922954 4.36179774 -1.24750021 6.59156268 -4 9 C-4.66 9 -5.32 9 -6 9 C-6 7.68 -6 6.36 -6 5 C-5.01 4.67 -4.02 4.34 -3 4 C-1.31461399 2.00334686 -1.31461399 2.00334686 0 0 Z " fill="#2B2187" transform="translate(241,195)"/>
<path d="M0 0 C0.33 0 0.66 0 1 0 C1 3.96 1 7.92 1 12 C0.01 12 -0.98 12 -2 12 C-2 9.36 -2 6.72 -2 4 C-1.34 4 -0.68 4 0 4 C0 2.68 0 1.36 0 0 Z " fill="#C52A3D" transform="translate(251,149)"/>
<path d="M0 0 C0.66 0 1.32 0 2 0 C3.35439668 2.70879335 3.06501451 5.00933268 3 8 C2.34 8 1.68 8 1 8 C1 9.98 1 11.96 1 14 C0.67 14 0.34 14 0 14 C0 9.38 0 4.76 0 0 Z " fill="#C5344E" transform="translate(155,127)"/>
<path d="M0 0 C0.66 0 1.32 0 2 0 C0.50902342 3.7952131 -1.75700849 5.61042731 -5 8 C-5.66 7.01 -6.32 6.02 -7 5 C-6.34 4.01 -5.68 3.02 -5 2 C-3.33333333 2 -1.66666667 2 0 2 C0 1.34 0 0.68 0 0 Z " fill="#2E178A" transform="translate(206,230)"/>
<path d="M0 0 C0.99 0 1.98 0 3 0 C3 2.97 3 5.94 3 9 C2.01 9.33 1.02 9.66 0 10 C0 6.7 0 3.4 0 0 Z " fill="#C62F4E" transform="translate(226,131)"/>
<path d="M0 0 C2.04379831 4.08759663 2.18594005 4.98685565 1.625 9.25 C1.51414062 10.14203125 1.40328125 11.0340625 1.2890625 11.953125 C1.19367188 12.62859375 1.09828125 13.3040625 1 14 C0.67 13.34 0.34 12.68 0 12 C-0.66 12 -1.32 12 -2 12 C-1.34 8.04 -0.68 4.08 0 0 Z " fill="#DB5F6E" transform="translate(261,139)"/>
<path d="M0 0 C-1.75 3.875 -1.75 3.875 -4 5 C-4.66 6.32 -5.32 7.64 -6 9 C-6 6.03 -6 3.06 -6 0 C-2 -1 -2 -1 0 0 Z " fill="#E8DEDD" transform="translate(254,130)"/>
<path d="M0 0 C0 0.33 0 0.66 0 1 C-0.886875 1.226875 -1.77375 1.45375 -2.6875 1.6875 C-6.43762153 3.17339721 -8.25614386 5.10370741 -11 8 C-11.66 8 -12.32 8 -13 8 C-10.56391361 1.79905283 -6.55536269 -0.60980118 0 0 Z " fill="#333D6F" transform="translate(758,88)"/>
<path d="M0 0 C1.8125 0.0625 1.8125 0.0625 4 1 C6.09669068 4.96873594 7 7.48438726 7 12 C6.34 12 5.68 12 5 12 C4.80664062 11.36191406 4.61328125 10.72382813 4.4140625 10.06640625 C4.15367187 9.24011719 3.89328125 8.41382813 3.625 7.5625 C3.36976563 6.73878906 3.11453125 5.91507813 2.8515625 5.06640625 C2.19117773 2.82201984 2.19117773 2.82201984 0 2 C0 1.34 0 0.68 0 0 Z " fill="#C8445A" transform="translate(218,143)"/>
<path d="M0 0 C0.598125 0.20625 1.19625 0.4125 1.8125 0.625 C-3.9375 5.625 -3.9375 5.625 -6.1875 5.625 C-5.875 3.75 -5.875 3.75 -5.1875 1.625 C-2.1875 -0.375 -2.1875 -0.375 0 0 Z " fill="#1D2962" transform="translate(533.1875,169.375)"/>
<path d="M0 0 C1.32 0 2.64 0 4 0 C3.39816251 2.02045442 2.72693904 4.02111039 2 6 C1.01 6.495 1.01 6.495 0 7 C-0.66 5.35 -1.32 3.7 -2 2 C-1.34 1.34 -0.68 0.68 0 0 Z " fill="#14215E" transform="translate(535,161)"/>
<path d="M0 0 C0.66 0 1.32 0 2 0 C1.5205537 4.21912747 0.83374881 6.79663178 -2 10 C-2.6875 8.375 -2.6875 8.375 -3 6 C-1.5625 2.75 -1.5625 2.75 0 0 Z " fill="#1E2B59" transform="translate(421,158)"/>
<path d="M0 0 C0.50015625 0.15339844 1.0003125 0.30679688 1.515625 0.46484375 C4.90327766 1.19457396 8.29961519 1.36356477 11.75 1.5625 C12.44738281 1.60568359 13.14476563 1.64886719 13.86328125 1.69335938 C15.57531922 1.79889596 17.28763561 1.8998991 19 2 C19 2.33 19 2.66 19 3 C16.20775927 3.08071788 13.41783434 3.14035408 10.625 3.1875 C9.8309375 3.21263672 9.036875 3.23777344 8.21875 3.26367188 C6.14413852 3.29004405 4.06899135 3.15486462 2 3 C1.34 2.01 0.68 1.02 0 0 Z " fill="#E7686B" transform="translate(89,141)"/>
<path d="M0 0 C0.99 0.33 1.98 0.66 3 1 C1.88121617 2.17262904 0.75476949 3.33795138 -0.375 4.5 C-1.00148438 5.1496875 -1.62796875 5.799375 -2.2734375 6.46875 C-4 8 -4 8 -6 8 C-4.55746343 4.63408134 -2.66735273 2.48952921 0 0 Z " fill="#47539E" transform="translate(118,133)"/>
<path d="M0 0 C2.4375 0.6875 2.4375 0.6875 5 2 C5.8125 4.625 5.8125 4.625 6 7 C5.01 7.495 5.01 7.495 4 8 C2.35 6.02 0.7 4.04 -1 2 C-0.67 1.34 -0.34 0.68 0 0 Z " fill="#3C3F95" transform="translate(128,156)"/>
<path d="M0 0 C0.99 0 1.98 0 3 0 C3 2.64 3 5.28 3 8 C2.01 7.67 1.02 7.34 0 7 C0 4.69 0 2.38 0 0 Z " fill="#B8344E" transform="translate(142,150)"/>
<path d="M0 0 C0.66 0.66 1.32 1.32 2 2 C1.875 4.4375 1.875 4.4375 1 7 C-0.32 7.99 -1.64 8.98 -3 10 C-2.01 6.7 -1.02 3.4 0 0 Z " fill="#293665" transform="translate(665,135)"/>
<path d="M0 0 C0.66 0 1.32 0 2 0 C1.67 4.29 1.34 8.58 1 13 C0.67 13 0.34 13 0 13 C-0.19466332 11.20909747 -0.38051213 9.41723495 -0.5625 7.625 C-0.66691406 6.62726563 -0.77132812 5.62953125 -0.87890625 4.6015625 C-1 2 -1 2 0 0 Z " fill="#EAE9EB" transform="translate(241,138)"/>
<path d="M0 0 C2.4294516 3.6441774 2.16179575 5.71241272 2 10 C0.5 8.875 0.5 8.875 -1 7 C-1.25 3.875 -1.25 3.875 -1 1 C-0.67 0.67 -0.34 0.34 0 0 Z " fill="#CF425F" transform="translate(255,131)"/>
<path d="M0 0 C0.99 0.33 1.98 0.66 3 1 C2.67 2.32 2.34 3.64 2 5 C1.67 4.34 1.34 3.68 1 3 C0.34 5.97 -0.32 8.94 -1 12 C-1.33 12 -1.66 12 -2 12 C-2.28571429 3.42857143 -2.28571429 3.42857143 0 0 Z " fill="#D67487" transform="translate(254,129)"/>
<path d="M0 0 C0.33 0 0.66 0 1 0 C1 5.28 1 10.56 1 16 C-0.32 15.34 -1.64 14.68 -3 14 C-2.34 13.67 -1.68 13.34 -1 13 C-0.53045739 9.95418731 -0.53045739 9.95418731 -0.375 6.4375 C-0.30023438 5.23996094 -0.22546875 4.04242188 -0.1484375 2.80859375 C-0.09945313 1.88175781 -0.05046875 0.95492187 0 0 Z " fill="#3A4067" transform="translate(418,99)"/>
<path d="M0 0 C2.60018816 3.90028225 2.15085514 7.47434569 2 12 C0.1152995 8.73318581 -0.59314612 5.74305571 -1 2 C-0.67 1.34 -0.34 0.68 0 0 Z " fill="#E9CCD2" transform="translate(166,138)"/>
<path d="M0 0 C0.99 0.33 1.98 0.66 3 1 C3 1.66 3 2.32 3 3 C2.34 3 1.68 3 1 3 C1 6.63 1 10.26 1 14 C0.67 14 0.34 14 0 14 C0 9.38 0 4.76 0 0 Z " fill="#E9E8EE" transform="translate(218,145)"/>
<path d="M0 0 C0.66 0 1.32 0 2 0 C2.33 2.64 2.66 5.28 3 8 C2.01 8 1.02 8 0 8 C0 5.36 0 2.72 0 0 Z " fill="#EACDD3" transform="translate(174,138)"/>
<path d="M0 0 C0.33 0.66 0.66 1.32 1 2 C1.66 2 2.32 2 3 2 C3 3.65 3 5.3 3 7 C2.01 7 1.02 7 0 7 C0 4.69 0 2.38 0 0 Z " fill="#CD2D42" transform="translate(258,149)"/>
<path d="M0 0 C0.33 0 0.66 0 1 0 C1 2.64 1 5.28 1 8 C0.01 8.33 -0.98 8.66 -2 9 C-2 7.35 -2 5.7 -2 4 C-1.34 4 -0.68 4 0 4 C0 2.68 0 1.36 0 0 Z " fill="#C7354A" transform="translate(233,148)"/>
<path d="M0 0 C0.66 0.33 1.32 0.66 2 1 C1.67 3.64 1.34 6.28 1 9 C-1 7 -1 7 -1.1875 3.9375 C-1 1 -1 1 0 0 Z " fill="#EFEDEC" transform="translate(250,140)"/>
</svg>
